<?xml version="1.0" encoding="UTF-8" standalone="no"?>
<!-- Created with Inkscape (http://www.inkscape.org/) -->

<svg
   xmlns:dc="http://purl.org/dc/elements/1.1/"
   xmlns:cc="http://creativecommons.org/ns#"
   xmlns:rdf="http://www.w3.org/1999/02/22-rdf-syntax-ns#"
   xmlns:svg="http://www.w3.org/2000/svg"
   xmlns="http://www.w3.org/2000/svg"
   xmlns:sodipodi="http://sodipodi.sourceforge.net/DTD/sodipodi-0.dtd"
   xmlns:inkscape="http://www.inkscape.org/namespaces/inkscape"
   width="79.97644mm"
   height="79.90229mm"
   viewBox="0 0 79.97644 79.90229"
   version="1.1"
   id="svg8"
   inkscape:version="0.92.2 (5c3e80d, 2017-08-06)"
   sodipodi:docname="MTTS.svg">
  <defs
     id="defs2" />
  <sodipodi:namedview
     id="base"
     pagecolor="#ffffff"
     bordercolor="#666666"
     borderopacity="1.0"
     inkscape:pageopacity="0.0"
     inkscape:pageshadow="2"
     inkscape:zoom="1.979899"
     inkscape:cx="313.80238"
     inkscape:cy="48.182029"
     inkscape:document-units="mm"
     inkscape:current-layer="layer1"
     showgrid="false"
     fit-margin-top="0"
     fit-margin-left="0"
     fit-margin-right="0"
     fit-margin-bottom="0"
     inkscape:window-width="2736"
     inkscape:window-height="1699"
     inkscape:window-x="-13"
     inkscape:window-y="-13"
     inkscape:window-maximized="1" />
  <metadata
     id="metadata5">
    <rdf:RDF>
      <cc:Work
         rdf:about="">
        <dc:format>image/svg+xml</dc:format>
        <dc:type
           rdf:resource="http://purl.org/dc/dcmitype/StillImage" />
        <dc:title></dc:title>
      </cc:Work>
    </rdf:RDF>
  </metadata>
  <g
     inkscape:label="Layer 1"
     inkscape:groupmode="layer"
     id="layer1"
     transform="translate(-21.480831,-124.77372)">
    <g
       transform="matrix(0.20234393,0,0,-0.20215632,39.508745,180.80094)"
       inkscape:label="ink_ext_XXXXXX"
       id="g823">
      <g
         transform="scale(0.1)"
         id="g825">
        <path
           inkscape:connector-curvature="0"
           id="path827"
           style="fill:#006699;fill-opacity:1;fill-rule:nonzero;stroke:none"
           d="m 1486.3,161.738 h 164.18 V 83.8711 H 1486.3 v 77.8669" />
        <path
           inkscape:connector-curvature="0"
           id="path829"
           style="fill:#006699;fill-opacity:1;fill-rule:nonzero;stroke:none"
           d="M 585.605,339.379 V 3.03125 h -96.82 V 259.199 L 340.531,3.03125 H 258.332 L 112.09,259.199 V 3.03125 H 15.2695 V 339.379 H 178.156 L 301.699,116.488 423.734,339.379 h 161.871" />
        <path
           inkscape:connector-curvature="0"
           id="path831"
           style="fill:#006699;fill-opacity:1;fill-rule:nonzero;stroke:none"
           d="M 890.191,255.172 V 3.03125 H 786.816 V 255.172 H 636.035 v 84.207 H 1038.45 V 255.172 H 890.191" />
        <path
           inkscape:connector-curvature="0"
           id="path833"
           style="fill:#006699;fill-opacity:1;fill-rule:nonzero;stroke:none"
           d="M 1351.61,255.172 V 3.03125 H 1248.23 V 255.172 h -150.78 v 84.207 h 402.41 v -84.207 h -148.25" />
        <path
           inkscape:connector-curvature="0"
           id="path835"
           style="fill:#006699;fill-opacity:1;fill-rule:nonzero;stroke:none"
           d="m 2055.61,236.512 c -1.51,31.258 -16.63,33.777 -76.65,33.777 -5.03,0 -8.06,0 -13.11,-0.5 -86.73,-4.539 -116.48,5.043 -116.48,-32.269 0,-16.649 13.11,-25.219 34.29,-25.719 29.75,-0.512 57.48,-1.512 81.19,-1.512 14.11,0 29.75,0.492 43.37,0.492 111.94,0 162.37,-4.031 162.37,-103.371 0,-70.0897 -26.73,-94.8006 -88.25,-101.85922 C 2064.18,3.53125 2010.73,0 1930.56,0 c -78.67,0 -129.1,3.01953 -151.79,19.1602 -32.27,23.1992 -27.73,50.9414 -28.24,91.2808 h 101.36 c 0.51,-15.1324 -4.03,-32.7808 31.77,-35.8004 8.57,-0.5117 33.79,-1.5195 69.59,-1.5195 94.8,0 114.47,0.5078 114.47,30.7579 0,30.262 -25.72,29.762 -64.05,30.262 -198.18,1.507 -255.66,-10.59 -255.66,100.347 0,66.563 21.18,94.801 85.73,102.364 21.18,2.527 70.6,6.058 142.71,6.058 77.15,0 120.52,0 147.75,-19.672 29.75,-21.679 31.26,-47.398 31.77,-86.726 h -100.36" />
        <path
           inkscape:connector-curvature="0"
           id="path837"
           style="fill:#006699;fill-opacity:1;fill-rule:nonzero;stroke:none"
           d="m 2068.92,1510.09 h 24.53 c 10.16,0 15.25,4.85 15.25,14.55 0,9.46 -4.69,14.2 -14.08,14.2 h -25.7 z m -19.24,-46.23 v 91.4 h 46.58 c 20.57,0 30.86,-9.46 30.86,-28.39 0,-13.77 -4.7,-22.02 -14.08,-24.76 8.68,-2.11 13.02,-8.09 13.02,-17.95 v -20.3 h -19.24 v 16.9 c 0,8.6 -4.46,12.91 -13.37,12.91 h -24.53 v -29.81 z m 38.84,115.34 c -19.09,0 -35.39,-6.87 -48.93,-20.6 -13.53,-13.72 -20.3,-30.33 -20.3,-49.8 0,-19.48 6.77,-36.09 20.3,-49.86 13.54,-13.77 29.84,-20.65 48.93,-20.65 19.08,0 35.35,6.88 48.8,20.65 13.46,13.77 20.19,30.38 20.19,49.86 0,19.4 -6.73,35.98 -20.19,49.74 -13.45,13.77 -29.72,20.66 -48.8,20.66 z m 0.12,11.26 c 22.36,0 41.51,-7.98 57.43,-23.93 15.91,-15.96 23.87,-35.2 23.87,-57.73 0,-22.53 -7.96,-41.79 -23.87,-57.78 -15.92,-16 -35.07,-23.99 -57.43,-23.99 -22.61,0 -41.89,7.97 -57.85,23.93 -15.95,15.95 -23.93,35.23 -23.93,57.84 0,22.53 7.98,41.77 23.93,57.73 15.96,15.95 35.24,23.93 57.85,23.93" />
        <path
           inkscape:connector-curvature="0"
           id="path839"
           style="fill:#006699;fill-opacity:1;fill-rule:nonzero;stroke:none"
           d="M 828.938,1321.79 H 1118.14 L 967.852,1582.12 H 129.824 L 280.121,1321.79 H 569.336 L 990.625,592.102 H 1250.23 L 828.938,1321.79" />
        <path
           inkscape:connector-curvature="0"
           id="path841"
           style="fill:none;stroke:#006699;stroke-width:13.71490002;stroke-linecap:round;stroke-linejoin:round;stroke-miterlimit:4;stroke-dasharray:none;stroke-opacity:1"
           d="M 828.938,1321.79 H 1118.14 L 967.852,1582.12 H 129.824 L 280.121,1321.79 H 569.336 L 990.625,592.102 h 259.605 z" />
        <path
           inkscape:connector-curvature="0"
           id="path843"
           style="fill:#006699;fill-opacity:1;fill-rule:nonzero;stroke:none"
           d="m 1742.12,1321.8 h 289.2 l -150.3,260.33 H 1043.01 L 1193.3,1321.8 h 289.21 L 1903.8,592.113 h 259.61 L 1742.12,1321.8" />
        <path
           inkscape:connector-curvature="0"
           id="path845"
           style="fill:none;stroke:#006699;stroke-width:13.71490002;stroke-linecap:round;stroke-linejoin:round;stroke-miterlimit:4;stroke-dasharray:none;stroke-opacity:1"
           d="m 1742.12,1321.8 h 289.2 l -150.3,260.33 H 1043.01 L 1193.3,1321.8 h 289.21 L 1903.8,592.113 h 259.61 z" />
        <path
           inkscape:connector-curvature="0"
           id="path847"
           style="fill:#006699;fill-opacity:1;fill-rule:nonzero;stroke:none"
           d="m 507.848,1215.3 h -230 L 6.85938,745.922 157.152,485.602 543.141,1154.16 507.848,1215.3" />
        <path
           inkscape:connector-curvature="0"
           id="path849"
           style="fill:none;stroke:#006699;stroke-width:13.71490002;stroke-linecap:round;stroke-linejoin:round;stroke-miterlimit:4;stroke-dasharray:none;stroke-opacity:1"
           d="m 507.848,1215.3 h -230 L 6.85938,745.922 157.152,485.602 543.141,1154.16 Z" />
        <path
           inkscape:connector-curvature="0"
           id="path851"
           style="fill:#006699;fill-opacity:1;fill-rule:nonzero;stroke:none"
           d="m 1421.02,1215.31 h -229.99 l -150.3,-260.33 150.3,-260.32 265.29,459.51 -35.3,61.14" />
        <path
           inkscape:connector-curvature="0"
           id="path853"
           style="fill:none;stroke:#006699;stroke-width:13.71490002;stroke-linecap:round;stroke-linejoin:round;stroke-miterlimit:4;stroke-dasharray:none;stroke-opacity:1"
           d="m 1421.02,1215.31 h -229.99 l -150.3,-260.33 150.3,-260.32 265.29,459.51 z" />
        <path
           inkscape:connector-curvature="0"
           id="path855"
           style="fill:#ffffff;fill-opacity:1;fill-rule:nonzero;stroke:none"
           d="m 890.426,1215.3 h 166.244 l 61.47,106.49 H 828.941 l 61.485,-106.49" />
        <path
           inkscape:connector-curvature="0"
           id="path857"
           style="fill:none;stroke:#0066a1;stroke-width:13.71490002;stroke-linecap:round;stroke-linejoin:round;stroke-miterlimit:4;stroke-dasharray:none;stroke-opacity:1"
           d="m 890.426,1215.3 h 166.244 l 61.47,106.49 H 828.941 Z" />
        <path
           inkscape:connector-curvature="0"
           id="path859"
           style="fill:#ffffff;fill-opacity:1;fill-rule:nonzero;stroke:none"
           d="M 543.141,1154.17 157.152,485.602 H 275.57 l 326.785,566.008 -59.214,102.56" />
        <path
           inkscape:connector-curvature="0"
           id="path861"
           style="fill:none;stroke:#0066a1;stroke-width:13.71490002;stroke-linecap:round;stroke-linejoin:round;stroke-miterlimit:4;stroke-dasharray:none;stroke-opacity:1"
           d="M 543.141,1154.17 157.152,485.602 H 275.57 l 326.785,566.008 z" />
        <path
           inkscape:connector-curvature="0"
           id="path863"
           style="fill:#ffffff;fill-opacity:1;fill-rule:nonzero;stroke:none"
           d="m 990.625,592.102 -61.488,-106.5 h 259.603 l 61.49,106.5 H 990.625" />
        <path
           inkscape:connector-curvature="0"
           id="path865"
           style="fill:none;stroke:#0066a1;stroke-width:13.71490002;stroke-linecap:round;stroke-linejoin:round;stroke-miterlimit:4;stroke-dasharray:none;stroke-opacity:1"
           d="m 990.625,592.102 -61.488,-106.5 h 259.603 l 61.49,106.5 z" />
        <path
           inkscape:connector-curvature="0"
           id="path867"
           style="fill:#ffffff;fill-opacity:1;fill-rule:nonzero;stroke:none"
           d="M 569.336,1321.79 507.848,1215.3 929.137,485.602 990.625,592.102 569.336,1321.79" />
        <path
           inkscape:connector-curvature="0"
           id="path869"
           style="fill:none;stroke:#0066a1;stroke-width:13.71490002;stroke-linecap:round;stroke-linejoin:round;stroke-miterlimit:4;stroke-dasharray:none;stroke-opacity:1"
           d="m 569.336,1321.79 -61.488,-106.49 421.289,-729.698 61.488,106.5 z" />
        <path
           inkscape:connector-curvature="0"
           id="path871"
           style="fill:#ffffff;fill-opacity:1;fill-rule:nonzero;stroke:none"
           d="M 280.121,1321.79 218.637,1215.3 h 289.211 l 61.488,106.49 H 280.121" />
        <path
           inkscape:connector-curvature="0"
           id="path873"
           style="fill:none;stroke:#0066a1;stroke-width:13.71490002;stroke-linecap:round;stroke-linejoin:round;stroke-miterlimit:4;stroke-dasharray:none;stroke-opacity:1"
           d="M 280.121,1321.79 218.637,1215.3 h 289.211 l 61.488,106.49 z" />
        <path
           inkscape:connector-curvature="0"
           id="path875"
           style="fill:#ffffff;fill-opacity:1;fill-rule:nonzero;stroke:none"
           d="M 129.824,1582.12 68.3398,1475.62 218.637,1215.3 280.121,1321.79 129.824,1582.12" />
        <path
           inkscape:connector-curvature="0"
           id="path877"
           style="fill:none;stroke:#0066a1;stroke-width:13.71490002;stroke-linecap:round;stroke-linejoin:round;stroke-miterlimit:4;stroke-dasharray:none;stroke-opacity:1"
           d="M 129.824,1582.12 68.3398,1475.62 218.637,1215.3 280.121,1321.79 Z" />
        <path
           inkscape:connector-curvature="0"
           id="path879"
           style="fill:#ffffff;fill-opacity:1;fill-rule:nonzero;stroke:none"
           d="m 1903.8,592.113 -61.49,-106.504 h 259.61 l 61.49,106.504 H 1903.8" />
        <path
           inkscape:connector-curvature="0"
           id="path881"
           style="fill:none;stroke:#0066a1;stroke-width:13.71490002;stroke-linecap:round;stroke-linejoin:round;stroke-miterlimit:4;stroke-dasharray:none;stroke-opacity:1"
           d="m 1903.8,592.113 -61.49,-106.504 h 259.61 l 61.49,106.504 z" />
        <path
           inkscape:connector-curvature="0"
           id="path883"
           style="fill:#ffffff;fill-opacity:1;fill-rule:nonzero;stroke:none"
           d="m 1482.51,1321.8 -61.49,-106.49 421.29,-729.701 61.49,106.504 -421.29,729.687" />
        <path
           inkscape:connector-curvature="0"
           id="path885"
           style="fill:none;stroke:#0066a1;stroke-width:13.71490002;stroke-linecap:round;stroke-linejoin:round;stroke-miterlimit:4;stroke-dasharray:none;stroke-opacity:1"
           d="m 1482.51,1321.8 -61.49,-106.49 421.29,-729.701 61.49,106.504 z" />
        <path
           inkscape:connector-curvature="0"
           id="path887"
           style="fill:#ffffff;fill-opacity:1;fill-rule:nonzero;stroke:none"
           d="m 1193.3,1321.8 -61.49,-106.49 h 289.21 l 61.49,106.49 H 1193.3" />
        <path
           inkscape:connector-curvature="0"
           id="path889"
           style="fill:none;stroke:#0066a1;stroke-width:13.71490002;stroke-linecap:round;stroke-linejoin:round;stroke-miterlimit:4;stroke-dasharray:none;stroke-opacity:1"
           d="m 1193.3,1321.8 -61.49,-106.49 h 289.21 l 61.49,106.49 z" />
        <path
           inkscape:connector-curvature="0"
           id="path891"
           style="fill:#ffffff;fill-opacity:1;fill-rule:nonzero;stroke:none"
           d="m 1803.59,1215.31 h 166.24 l 61.49,106.49 h -289.2 l 61.47,-106.49" />
        <path
           inkscape:connector-curvature="0"
           id="path893"
           style="fill:none;stroke:#0066a1;stroke-width:13.71490002;stroke-linecap:round;stroke-linejoin:round;stroke-miterlimit:4;stroke-dasharray:none;stroke-opacity:1"
           d="m 1803.59,1215.31 h 166.24 l 61.49,106.49 h -289.2 z" />
        <path
           inkscape:connector-curvature="0"
           id="path895"
           style="fill:#ffffff;fill-opacity:1;fill-rule:nonzero;stroke:none"
           d="m 1456.32,1154.17 -265.3,-459.518 59.21,-102.55 265.29,459.508 -59.2,102.56" />
        <path
           inkscape:connector-curvature="0"
           id="path897"
           style="fill:none;stroke:#0066a1;stroke-width:13.71490002;stroke-linecap:round;stroke-linejoin:round;stroke-miterlimit:4;stroke-dasharray:none;stroke-opacity:1"
           d="m 1456.32,1154.17 -265.3,-459.518 59.21,-102.55 265.29,459.508 z" />
        <path
           inkscape:connector-curvature="0"
           id="path899"
           style="fill:#ffffff;fill-opacity:1;fill-rule:nonzero;stroke:none"
           d="m 1118.16,1321.8 -23.92,-41.42 37.58,-65.07 61.48,106.49 -150.29,260.33 -37.58,-65.08 112.73,-195.25" />
        <path
           inkscape:connector-curvature="0"
           id="path901"
           style="fill:none;stroke:#0066a1;stroke-width:13.71490002;stroke-linecap:round;stroke-linejoin:round;stroke-miterlimit:4;stroke-dasharray:none;stroke-opacity:1"
           d="m 1118.16,1321.8 -23.92,-41.42 37.58,-65.07 61.48,106.49 -150.29,260.33 -37.58,-65.08 z" />
      </g>
    </g>
  </g>
</svg>
