<?xml version="1.0" encoding="UTF-8" standalone="no"?>
<!-- Created with Inkscape (http://www.inkscape.org/) -->

<svg
   xmlns:dc="http://purl.org/dc/elements/1.1/"
   xmlns:cc="http://creativecommons.org/ns#"
   xmlns:rdf="http://www.w3.org/1999/02/22-rdf-syntax-ns#"
   xmlns:svg="http://www.w3.org/2000/svg"
   xmlns="http://www.w3.org/2000/svg"
   xmlns:sodipodi="http://sodipodi.sourceforge.net/DTD/sodipodi-0.dtd"
   xmlns:inkscape="http://www.inkscape.org/namespaces/inkscape"
   width="79.990356mm"
   height="79.990135mm"
   viewBox="0 0 79.990356 79.990135"
   version="1.1"
   id="svg3408"
   inkscape:version="0.92.2 (5c3e80d, 2017-08-06)"
   sodipodi:docname="RWW_logo.svg">
  <defs
     id="defs3402">
    <clipPath
       id="clipPath1508"
       clipPathUnits="userSpaceOnUse">
      <path
         inkscape:connector-curvature="0"
         id="path1506"
         d="M 30,654 H 582.001 V 763 H 30 Z" />
    </clipPath>
    <clipPath
       id="clipPath1524"
       clipPathUnits="userSpaceOnUse">
      <path
         inkscape:connector-curvature="0"
         id="path1522"
         d="M 30,654 H 582.001 V 763 H 30 Z" />
    </clipPath>
    <clipPath
       id="clipPath1586"
       clipPathUnits="userSpaceOnUse">
      <path
         inkscape:connector-curvature="0"
         id="path1584"
         d="M 30,654 H 582.001 V 763 H 30 Z" />
    </clipPath>
  </defs>
  <sodipodi:namedview
     id="base"
     pagecolor="#ffffff"
     bordercolor="#666666"
     borderopacity="1.0"
     inkscape:pageopacity="0.0"
     inkscape:pageshadow="2"
     inkscape:zoom="1.979899"
     inkscape:cx="311.97112"
     inkscape:cy="40.162697"
     inkscape:document-units="mm"
     inkscape:current-layer="layer1"
     showgrid="false"
     inkscape:window-width="2736"
     inkscape:window-height="1699"
     inkscape:window-x="-13"
     inkscape:window-y="-13"
     inkscape:window-maximized="1"
     fit-margin-top="0"
     fit-margin-left="0"
     fit-margin-right="0"
     fit-margin-bottom="0" />
  <metadata
     id="metadata3405">
    <rdf:RDF>
      <cc:Work
         rdf:about="">
        <dc:format>image/svg+xml</dc:format>
        <dc:type
           rdf:resource="http://purl.org/dc/dcmitype/StillImage" />
        <dc:title></dc:title>
      </cc:Work>
    </rdf:RDF>
  </metadata>
  <g
     inkscape:label="Layer 1"
     inkscape:groupmode="layer"
     id="layer1"
     transform="translate(-40.365212,-181.19868)">
    <g
       transform="matrix(0.73000464,0,0,0.73000264,152.28601,244.03371)"
       id="g3332">
      <path
         inkscape:connector-curvature="0"
         id="path1500"
         style="fill:#f69321;fill-opacity:1;fill-rule:nonzero;stroke:none;stroke-width:0.35277778"
         d="m -96.553655,-48.912454 h 32.408284 v 35.06999 h -32.408284 z" />
      <g
         transform="matrix(0.35277777,0,0,-0.35277777,-143.92113,218.57282)"
         id="g1502">
        <g
           clip-path="url(#clipPath1508)"
           id="g1504">
          <g
             transform="translate(226.2442,738.4668)"
             id="g1510">
            <path
               inkscape:connector-curvature="0"
               id="path1512"
               style="fill:none;stroke:#ffffff;stroke-width:1.19400001;stroke-linecap:butt;stroke-linejoin:miter;stroke-miterlimit:4;stroke-dasharray:none;stroke-opacity:1"
               d="M 0,0 C -1.95,6.255 -3.596,10.519 -7.124,15.96" />
          </g>
        </g>
      </g>
      <g
         transform="matrix(0.35277777,0,0,-0.35277777,-132.854,-13.777376)"
         id="g1514">
        <path
           inkscape:connector-curvature="0"
           id="path1516"
           style="fill:#ffffff;fill-opacity:1;fill-rule:nonzero;stroke:none"
           d="M 0,0 V 99.778 H 194.151 V 99.777 L 123.514,57.017 122.746,56.102 132.525,0 Z" />
      </g>
      <g
         transform="matrix(0.35277777,0,0,-0.35277777,-143.92113,218.57282)"
         id="g1518">
        <g
           clip-path="url(#clipPath1524)"
           id="g1520">
          <g
             transform="translate(168.2569,715.8281)"
             id="g1526">
            <path
               inkscape:connector-curvature="0"
               id="path1528"
               style="fill:none;stroke:#ffffff;stroke-width:1.19400001;stroke-linecap:butt;stroke-linejoin:miter;stroke-miterlimit:4;stroke-dasharray:none;stroke-opacity:1"
               d="M 0,0 C 0,8 -6.848,14.486 -15.298,14.486 -23.747,14.486 -30.596,8 -30.596,0 c 0,-8 6.849,-14.486 15.298,-14.486 C -6.848,-14.486 0,-8 0,0 Z" />
          </g>
          <g
             transform="translate(183.833,715.8281)"
             id="g1530">
            <path
               inkscape:connector-curvature="0"
               id="path1532"
               style="fill:none;stroke:#ffffff;stroke-width:1.19400001;stroke-linecap:butt;stroke-linejoin:miter;stroke-miterlimit:4;stroke-dasharray:none;stroke-opacity:1"
               d="m 0,0 c 0,16.147 -16.911,29.234 -30.874,29.234 -17.051,0 -30.874,-13.087 -30.874,-29.234 0,-16.145 13.823,-29.233 30.874,-29.233 C -13.824,-29.233 0,-16.145 0,0 Z" />
          </g>
          <g
             transform="translate(109.515,687.7527)"
             id="g1534">
            <path
               inkscape:connector-curvature="0"
               id="path1536"
               style="fill:none;stroke:#ffffff;stroke-width:1.19400001;stroke-linecap:butt;stroke-linejoin:miter;stroke-miterlimit:4;stroke-dasharray:none;stroke-opacity:1"
               d="M 0,0 C 15.716,-22.824 47.996,-29.265 72.101,-14.383 96.207,0.497 103.324,30.605 87.609,53.43" />
          </g>
          <g
             transform="translate(53.0051,758.4713)"
             id="g1538">
            <path
               inkscape:connector-curvature="0"
               id="path1540"
               style="fill:none;stroke:#f69321;stroke-width:1.19400001;stroke-linecap:butt;stroke-linejoin:miter;stroke-miterlimit:4;stroke-dasharray:none;stroke-opacity:1"
               d="m 0,0 c -6.209,-13.005 -9.666,-27.442 -9.666,-42.641 0,-1.901 0.057,-3.788 0.164,-5.664" />
          </g>
          <g
             transform="translate(149.1518,711.7315)"
             id="g1542">
            <path
               inkscape:connector-curvature="0"
               id="path1544"
               style="fill:none;stroke:#f69321;stroke-width:1.19400001;stroke-linecap:butt;stroke-linejoin:miter;stroke-miterlimit:4;stroke-dasharray:none;stroke-opacity:1"
               d="m 0,0 c 1.526,0.469 3.069,0.902 4.662,1.223 1.305,0.265 2.608,0.525 3.906,0.8 0.165,0.482 0.257,0.993 0.257,1.527 0,2.725 -2.333,4.934 -5.21,4.934 -2.88,0 -5.212,-2.209 -5.212,-4.934 C -1.597,2.154 -0.982,0.897 0,0 Z" />
          </g>
          <g
             transform="translate(166.3891,722.5429)"
             id="g1546">
            <path
               inkscape:connector-curvature="0"
               id="path1548"
               style="fill:none;stroke:#f69321;stroke-width:1.19400001;stroke-linecap:butt;stroke-linejoin:miter;stroke-miterlimit:4;stroke-dasharray:none;stroke-opacity:1"
               d="m 0,0 c -2.68,4.501 -7.776,7.54 -13.623,7.54 -8.634,0 -15.632,-6.627 -15.632,-14.801 0,-2.345 0.578,-4.56 1.601,-6.53" />
          </g>
          <g
             transform="translate(179.226,730.1811)"
             id="g1550">
            <path
               inkscape:connector-curvature="0"
               id="path1552"
               style="fill:none;stroke:#f69321;stroke-width:1.19400001;stroke-linecap:butt;stroke-linejoin:miter;stroke-miterlimit:4;stroke-dasharray:none;stroke-opacity:1"
               d="m 0,0 c -5.533,8.637 -15.313,14.705 -26.46,14.705 -17.268,0 -31.265,-13.254 -31.265,-29.604 0,-3.88 0.796,-7.582 2.23,-10.978" />
          </g>
          <g
             transform="translate(126.8883,758.1172)"
             id="g1554">
            <path
               inkscape:connector-curvature="0"
               id="path1556"
               style="fill:none;stroke:#f69321;stroke-width:1.19400001;stroke-linecap:butt;stroke-linejoin:miter;stroke-miterlimit:4;stroke-dasharray:none;stroke-opacity:1"
               d="m 0,0 c -15.672,-8.507 -26.231,-24.504 -26.231,-42.835 0,-9.664 2.937,-18.675 8.006,-26.285" />
          </g>
          <g
             transform="translate(197.1528,741.1387)"
             id="g1558">
            <path
               inkscape:connector-curvature="0"
               id="path1560"
               style="fill:none;stroke:#f69321;stroke-width:1.19400001;stroke-linecap:butt;stroke-linejoin:miter;stroke-miterlimit:4;stroke-dasharray:none;stroke-opacity:1"
               d="M 0,0 C -4.685,7.196 -11.269,13.167 -19.088,17.289" />
          </g>
          <g
             transform="translate(89.3182,758.5149)"
             id="g1562">
            <path
               inkscape:connector-curvature="0"
               id="path1564"
               style="fill:none;stroke:#f69321;stroke-width:1.19400001;stroke-linecap:butt;stroke-linejoin:miter;stroke-miterlimit:4;stroke-dasharray:none;stroke-opacity:1"
               d="m 0,0 c -9.259,-12.163 -14.715,-27.095 -14.715,-43.233 0,-6.255 0.823,-12.327 2.366,-18.127" />
          </g>
          <g
             transform="translate(219.0883,754.4573)"
             id="g1566">
            <path
               inkscape:connector-curvature="0"
               id="path1568"
               style="fill:none;stroke:#f69321;stroke-width:1.19400001;stroke-linecap:butt;stroke-linejoin:miter;stroke-miterlimit:4;stroke-dasharray:none;stroke-opacity:1"
               d="M 0,0 C -0.828,1.254 -1.694,2.483 -2.596,3.685" />
          </g>
        </g>
      </g>
      <g
         transform="matrix(0.35277777,0,0,-0.35277777,-88.145265,-13.615592)"
         id="g1570">
        <path
           inkscape:connector-curvature="0"
           id="path1572"
           style="fill:none;stroke:#f69321;stroke-width:0.889;stroke-linecap:butt;stroke-linejoin:miter;stroke-miterlimit:10;stroke-dasharray:none;stroke-opacity:1"
           d="m 0,0 -4.342,60.03 -4.922,-12.952 5.5,-0.273 -6.658,-9.868 h 7.527 L -13.027,27.343 -2.606,27.069 -15.632,17.2 -2.026,16.926 -17.659,5.413 -0.579,5.139" />
      </g>
      <g
         transform="matrix(0.35277777,0,0,-0.35277777,-114.97018,-33.801748)"
         id="g1574">
        <path
           inkscape:connector-curvature="0"
           id="path1576"
           style="fill:none;stroke:#f69321;stroke-width:1.19400001;stroke-linecap:butt;stroke-linejoin:miter;stroke-miterlimit:4;stroke-dasharray:none;stroke-opacity:1"
           d="M 0,0 H 0.065" />
      </g>
      <path
         inkscape:connector-curvature="0"
         id="path1578"
         style="fill:#f69321;fill-opacity:1;fill-rule:nonzero;stroke:none;stroke-width:0.35277778"
         d="m -83.715718,-30.223699 h 9.293578 v 11.603919 h -9.293578 z" />
      <g
         transform="matrix(0.35277777,0,0,-0.35277777,-143.92113,218.57282)"
         id="g1580">
        <g
           clip-path="url(#clipPath1586)"
           id="g1582">
          <g
             transform="translate(64.7984,696.3059)"
             id="g1588">
            <path
               inkscape:connector-curvature="0"
               id="path1590"
               style="fill:#f69323;fill-opacity:1;fill-rule:nonzero;stroke:none"
               d="M 0,0 C 0,1.803 -0.563,3.278 -1.687,4.422 -2.81,5.569 -4.7,6.143 -7.352,6.143 h -10.12 V -6.388 h 9.861 c 2.767,0 4.727,0.545 5.882,1.638 C -0.578,-3.658 0,-2.076 0,0 m -0.866,-38.248 -9.859,19.33 h -6.747 v -19.33 h -16.52 v 57.331 h 27.073 c 3.516,0 6.731,-0.341 9.643,-1.024 2.911,-0.684 5.406,-1.761 7.483,-3.235 2.075,-1.473 3.676,-3.399 4.799,-5.774 1.125,-2.375 1.687,-5.256 1.687,-8.64 0,-4.314 -0.98,-7.836 -2.941,-10.564 -1.961,-2.732 -4.613,-4.807 -7.957,-6.225 l 12.109,-21.869 z" />
          </g>
          <g
             transform="translate(138.2755,658.0589)"
             id="g1592">
            <path
               inkscape:connector-curvature="0"
               id="path1594"
               style="fill:#f69323;fill-opacity:1;fill-rule:nonzero;stroke:none"
               d="m 0,0 h -15.481 l -2.769,12.449 c -0.518,2.181 -1.01,4.463 -1.47,6.84 -0.462,2.375 -0.88,4.639 -1.254,6.797 -0.376,2.156 -0.691,4.121 -0.952,5.895 -0.258,1.774 -0.418,3.182 -0.474,4.218 -0.117,-1.036 -0.29,-2.444 -0.519,-4.218 -0.232,-1.774 -0.535,-3.739 -0.909,-5.895 -0.376,-2.158 -0.794,-4.422 -1.254,-6.797 -0.463,-2.377 -0.952,-4.659 -1.47,-6.84 L -29.32,0 h -15.309 l -14.445,57.329 h 17.299 l 1.643,-9.581 c 0.346,-2.021 0.705,-4.136 1.081,-6.347 0.375,-2.213 0.72,-4.409 1.038,-6.593 0.316,-2.185 0.606,-4.302 0.864,-6.348 0.26,-2.047 0.477,-3.917 0.65,-5.609 0.171,1.692 0.418,3.548 0.736,5.568 0.314,2.019 0.675,4.108 1.08,6.266 0.404,2.156 0.835,4.341 1.296,6.551 0.462,2.212 0.923,4.353 1.386,6.43 l 2.074,9.663 h 15.396 l 2.077,-9.663 c 0.46,-2.077 0.922,-4.218 1.383,-6.43 0.46,-2.21 0.894,-4.395 1.299,-6.551 0.401,-2.158 0.763,-4.247 1.08,-6.266 0.318,-2.02 0.563,-3.876 0.736,-5.568 0.173,1.692 0.39,3.562 0.648,5.609 0.26,2.046 0.547,4.163 0.865,6.348 0.317,2.184 0.663,4.38 1.037,6.593 0.375,2.211 0.737,4.326 1.082,6.347 l 1.643,9.581 h 17.126 z" />
          </g>
          <g
             transform="translate(211.8828,658.0589)"
             id="g1596">
            <path
               inkscape:connector-curvature="0"
               id="path1598"
               style="fill:#ffffff;fill-opacity:1;fill-rule:nonzero;stroke:none"
               d="m 0,0 h -15.483 l -2.768,12.449 c -0.518,2.181 -1.009,4.463 -1.471,6.84 -0.462,2.375 -0.88,4.639 -1.254,6.797 -0.375,2.156 -0.691,4.121 -0.951,5.895 -0.259,1.774 -0.42,3.182 -0.475,4.218 -0.118,-1.036 -0.29,-2.444 -0.519,-4.218 -0.231,-1.774 -0.535,-3.739 -0.909,-5.895 -0.375,-2.158 -0.793,-4.422 -1.253,-6.797 -0.463,-2.377 -0.951,-4.659 -1.471,-6.84 L -29.321,0 h -15.31 l -14.445,57.329 h 17.299 l 1.644,-9.581 c 0.345,-2.021 0.705,-4.136 1.08,-6.347 0.374,-2.213 0.721,-4.409 1.039,-6.593 0.317,-2.185 0.604,-4.302 0.864,-6.348 0.259,-2.047 0.477,-3.917 0.649,-5.609 0.172,1.692 0.418,3.548 0.735,5.568 0.316,2.019 0.677,4.108 1.082,6.266 0.402,2.156 0.834,4.341 1.297,6.551 0.461,2.212 0.921,4.353 1.383,6.43 l 2.077,9.663 h 15.396 l 2.075,-9.663 c 0.461,-2.077 0.921,-4.218 1.384,-6.43 0.461,-2.21 0.894,-4.395 1.298,-6.551 0.403,-2.158 0.763,-4.247 1.081,-6.266 0.316,-2.02 0.562,-3.876 0.736,-5.568 0.173,1.692 0.388,3.562 0.648,5.609 0.26,2.046 0.547,4.163 0.865,6.348 0.316,2.184 0.662,4.38 1.038,6.593 0.374,2.211 0.734,4.326 1.081,6.347 l 1.643,9.581 h 17.126 z" />
          </g>
          <g
             transform="translate(137.6082,658.4412)"
             id="g1600">
            <path
               inkscape:connector-curvature="0"
               id="path1602"
               style="fill:none;stroke:#f69323;stroke-width:0.889;stroke-linecap:butt;stroke-linejoin:miter;stroke-miterlimit:10;stroke-dasharray:none;stroke-opacity:1"
               d="M 0,0 15.507,60.377 31.013,0" />
          </g>
          <g
             transform="translate(169.0092,658.0113)"
             id="g1604">
            <path
               inkscape:connector-curvature="0"
               id="path1606"
               style="fill:#f69321;fill-opacity:1;fill-rule:nonzero;stroke:none"
               d="m 0,0 -15.633,61.767 4.632,-61.95 z" />
          </g>
          <g
             transform="translate(157.8152,715.3925)"
             id="g1608">
            <path
               inkscape:connector-curvature="0"
               id="path1610"
               style="fill:#f69321;fill-opacity:1;fill-rule:nonzero;stroke:none"
               d="m 0,0 c 0,2.724 -2.333,4.935 -5.211,4.935 -2.878,0 -5.211,-2.211 -5.211,-4.935 0,-2.724 2.333,-4.935 5.211,-4.935 C -2.333,-4.935 0,-2.724 0,0" />
          </g>
          <g
             transform="translate(157.8152,715.3925)"
             id="g1612">
            <path
               inkscape:connector-curvature="0"
               id="path1614"
               style="fill:none;stroke:#f69321;stroke-width:1.19400001;stroke-linecap:butt;stroke-linejoin:miter;stroke-miterlimit:4;stroke-dasharray:none;stroke-opacity:1"
               d="m 0,0 c 0,2.724 -2.333,4.935 -5.211,4.935 -2.878,0 -5.211,-2.211 -5.211,-4.935 0,-2.724 2.333,-4.935 5.211,-4.935 C -2.333,-4.935 0,-2.724 0,0 Z" />
          </g>
          <path
             inkscape:connector-curvature="0"
             id="path1616"
             style="fill:none;stroke:#f69321;stroke-width:1.78999996;stroke-linecap:butt;stroke-linejoin:miter;stroke-miterlimit:4;stroke-dasharray:none;stroke-opacity:1"
             d="M 31.213,758.337 H 226.136 V 658.194 H 31.213 Z" />
        </g>
      </g>
    </g>
  </g>
</svg>
