<?xml version="1.0" encoding="UTF-8" standalone="no"?>
<!-- Created with Inkscape (http://www.inkscape.org/) -->

<svg
   xmlns:dc="http://purl.org/dc/elements/1.1/"
   xmlns:cc="http://creativecommons.org/ns#"
   xmlns:rdf="http://www.w3.org/1999/02/22-rdf-syntax-ns#"
   xmlns:svg="http://www.w3.org/2000/svg"
   xmlns="http://www.w3.org/2000/svg"
   xmlns:sodipodi="http://sodipodi.sourceforge.net/DTD/sodipodi-0.dtd"
   xmlns:inkscape="http://www.inkscape.org/namespaces/inkscape"
   width="80mm"
   height="80mm"
   viewBox="0 0 80.000001 79.999999"
   version="1.1"
   id="svg8"
   inkscape:version="0.92.2 (5c3e80d, 2017-08-06)"
   sodipodi:docname="ttu_logo_wb.svg">
  <defs
     id="defs2">
    <clipPath
       id="clipPath831"
       clipPathUnits="userSpaceOnUse">
      <path
         inkscape:connector-curvature="0"
         id="path829"
         d="M 0,612 H 792 V 0 H 0 Z" />
    </clipPath>
  </defs>
  <sodipodi:namedview
     id="base"
     pagecolor="#ffffff"
     bordercolor="#666666"
     borderopacity="1.0"
     inkscape:pageopacity="0.0"
     inkscape:pageshadow="2"
     inkscape:zoom="1.979899"
     inkscape:cx="203.31769"
     inkscape:cy="92.319683"
     inkscape:document-units="mm"
     inkscape:current-layer="layer1"
     showgrid="false"
     fit-margin-top="0"
     fit-margin-left="0"
     fit-margin-right="0"
     fit-margin-bottom="0"
     inkscape:window-width="2736"
     inkscape:window-height="1699"
     inkscape:window-x="-13"
     inkscape:window-y="-13"
     inkscape:window-maximized="1" />
  <metadata
     id="metadata5">
    <rdf:RDF>
      <cc:Work
         rdf:about="">
        <dc:format>image/svg+xml</dc:format>
        <dc:type
           rdf:resource="http://purl.org/dc/dcmitype/StillImage" />
        <dc:title></dc:title>
      </cc:Work>
    </rdf:RDF>
  </metadata>
  <g
     inkscape:label="Layer 1"
     inkscape:groupmode="layer"
     id="layer1"
     transform="translate(107.40531,-113.60631)">
    <g
       id="g1475"
       transform="matrix(0.94572927,0,0,0.94572927,-7.3455529,6.3365408)"
       style="stroke-width:1.05738509">
      <rect
         y="113.42545"
         x="-105.8017"
         height="84.590805"
         width="84.590805"
         id="rect827"
         style="opacity:1;fill:#ffffff;fill-opacity:1;stroke:none;stroke-width:2.11477017;stroke-linecap:round;stroke-miterlimit:4;stroke-dasharray:none;stroke-dashoffset:0;stroke-opacity:1" />
      <g
         id="g823"
         inkscape:label="TTU_DblTalt_c2C"
         transform="matrix(0.35277777,0,0,-0.35277777,-203.15244,280.83538)"
         style="stroke-width:1.05738509">
        <g
           id="g825"
           style="stroke-width:1.05738509">
          <g
             id="g827"
             clip-path="url(#clipPath831)"
             style="stroke-width:1.05738509">
            <g
               id="g833"
               transform="translate(418.6738,344.8252)"
               style="stroke-width:1.05738509">
              <path
                 d="M 0,0 C 0.232,0 0.439,0.017 0.439,0.294 0.439,0.519 0.235,0.56 0.046,0.56 H -0.327 V 0 Z m -0.327,-1.02 h -0.276 v 1.814 h 0.69 c 0.428,0 0.64,-0.16 0.64,-0.516 0,-0.325 -0.206,-0.466 -0.469,-0.499 L 0.771,-1.02 H 0.465 l -0.479,0.788 h -0.313 z m -1.265,0.911 c 0,0.903 0.733,1.566 1.596,1.566 0.855,0 1.586,-0.663 1.586,-1.566 0,-0.911 -0.731,-1.575 -1.586,-1.575 -0.863,0 -1.596,0.664 -1.596,1.575 m 1.596,-1.312 c 0.711,0 1.269,0.557 1.269,1.312 0,0.743 -0.558,1.304 -1.269,1.304 -0.718,0 -1.279,-0.561 -1.279,-1.304 0,-0.755 0.561,-1.312 1.279,-1.312 M 56.82,-55.727 v -0.667 l 0.999,-0.15 3.258,-5.713 v -3.471 l -0.263,-0.23 -1.113,-0.08 v -0.672 h 4.239 v 0.672 l -1.113,0.08 -0.262,0.23 v 3.683 l 3.408,5.452 0.996,0.196 v 0.67 h -3.337 v -0.67 l 0.998,-0.163 0.15,-0.23 -2.753,-4.369 -2.506,4.5 0.167,0.18 0.932,0.082 v 0.67 z m -19.795,0.003 v -2.523 h 0.9 l 0.23,1.523 0.229,0.248 h 2.505 v -9.252 l -0.28,-0.229 -1.098,-0.081 v -0.67 l 4.276,-0.002 v 0.672 l -1.098,0.081 -0.279,0.229 v 9.252 h 2.504 l 0.233,-0.248 0.226,-1.523 h 0.902 v 2.52 z M 22.206,-66.708 h 4.159 v 0.672 l -1.049,0.079 -0.276,0.229 v 9.025 l 0.276,0.227 1.049,0.082 v 0.67 h -4.157 v -0.67 l 1.047,-0.082 0.277,-0.227 v -9.025 l -0.277,-0.229 -1.049,-0.079 z M 3.685,-66.38 c 0.918,-0.358 1.802,-0.524 2.884,-0.524 2.619,0 4.322,1.276 4.322,3.275 0,1.376 -0.67,2.128 -2.652,2.931 -1.212,0.508 -1.638,0.705 -1.981,0.914 -0.622,0.411 -0.866,0.82 -0.866,1.492 0,1.18 0.881,1.949 2.225,1.949 0.572,0 0.982,-0.098 1.473,-0.344 l 0.247,-0.279 0.247,-1.556 h 0.849 v 2.538 c -1.065,0.327 -1.869,0.458 -2.75,0.458 -2.342,0 -3.815,-1.245 -3.815,-3.192 0,-1.31 0.668,-2.049 2.668,-2.883 1.525,-0.652 1.639,-0.703 2.045,-0.979 0.575,-0.38 0.786,-0.768 0.786,-1.444 0,-1.276 -0.916,-2.012 -2.504,-2.012 -0.72,0 -1.245,0.114 -1.801,0.377 l -0.213,0.281 -0.198,1.877 H 3.685 Z m -18.154,9.905 h 0.783 c 2.114,0 3.013,-0.686 3.013,-2.289 0,-1.589 -0.883,-2.311 -2.835,-2.311 -0.195,0 -0.405,0 -0.964,0.03 z m -2.687,0.755 v -0.672 l 0.933,-0.083 0.28,-0.228 -0.001,-9.023 -0.282,-0.226 -0.933,-0.084 v -0.672 h 3.898 v 0.672 l -0.931,0.084 -0.28,0.226 v 3.895 c 0.559,0.035 0.639,0.035 0.866,0.035 0.934,0 1.507,-0.18 1.917,-0.623 0.345,-0.375 0.523,-0.766 0.836,-1.945 0.507,-1.949 1.063,-2.475 2.602,-2.475 0.411,0 0.639,0.033 1.295,0.147 v 0.625 c -1.738,-0.018 -2.146,0.308 -2.538,2.109 -0.343,1.637 -0.819,2.197 -2.195,2.571 1.852,0.457 2.653,1.296 2.653,2.798 0,1.902 -1.31,2.869 -3.946,2.869 z m -19.258,-10.982 8.431,-0.006 0.002,2.672 h -0.852 l -0.277,-1.656 -0.228,-0.26 h -4.391 v 4.584 l 2.687,-0.002 0.229,-0.244 0.166,-1.18 h 0.767 v 3.602 h -0.767 l -0.166,-1.196 -0.229,-0.224 h -2.687 v 4.137 h 3.785 l 0.226,-0.247 0.23,-1.387 h 0.919 v 2.389 h -7.842 v -0.672 l 0.933,-0.083 0.278,-0.227 -0.002,-9.024 -0.276,-0.226 -0.936,-0.082 z M -57.27,-55.72 v -0.67 l 1.047,-0.181 3.846,-10.215 h 1.128 l 3.767,10.215 1.015,0.181 v 0.67 h -3.259 v -0.67 l 1.017,-0.085 0.164,-0.227 -2.967,-8.25 -3.076,8.25 0.182,0.227 0.949,0.085 v 0.67 z m -14.183,-10.982 h 4.159 v 0.668 l -1.047,0.084 -0.279,0.228 v 9.02 l 0.28,0.231 1.046,0.081 v 0.671 h -4.157 v -0.671 l 1.047,-0.081 0.278,-0.231 -0.003,-9.02 -0.276,-0.228 -1.048,-0.084 z m -21.596,0 h 3.451 v 0.668 l -0.981,0.133 -0.293,0.312 v 8.184 l 6.236,-9.297 h 1.081 l 0.001,9.887 0.295,0.296 0.983,0.129 v 0.671 h -3.44 v -0.671 l 0.984,-0.129 0.294,-0.296 v -7.695 l -5.583,8.386 v 0.405 h -3.078 v -0.671 l 1.048,-0.079 0.294,-0.23 v -8.89 l -0.294,-0.312 -0.997,-0.127 z m -21.253,10.988 v -0.672 l 0.933,-0.083 0.278,-0.23 v -6.073 c 0,-1.215 0.131,-1.95 0.459,-2.523 0.588,-1.013 1.914,-1.601 3.632,-1.601 1.476,0 2.703,0.44 3.391,1.208 0.523,0.605 0.734,1.423 0.734,2.916 v 5.959 l 0.299,0.294 0.98,0.129 v 0.671 l -3.455,0.005 v -0.672 l 0.984,-0.131 0.311,-0.296 v -5.814 c 0,-2.272 -0.884,-3.257 -2.931,-3.257 -2.014,0 -2.897,0.985 -2.897,3.257 v 5.928 l 0.278,0.23 1.015,0.083 v 0.672 z m 160.134,41.789 v -1.325 l 1.84,-0.159 0.549,-0.454 -0.003,-17.785 -0.546,-0.451 -1.842,-0.165 v -1.322 h 7.845 v 1.322 l -2.002,0.165 -0.549,0.451 v 8.681 h 11.105 v -8.684 l -0.548,-0.453 -2.004,-0.16 v -1.325 h 7.848 v 1.325 l -1.842,0.16 -0.549,0.453 0.002,17.788 0.547,0.451 1.842,0.162 v 1.324 H 59.68 v -1.324 l 2.001,-0.162 0.548,-0.451 v -7.619 H 51.124 v 7.619 l 0.551,0.454 2,0.159 v 1.325 z m -2.609,-15.819 h -1.745 l -0.776,-3.582 -0.514,-0.519 c -1.067,-0.353 -1.811,-0.419 -2.812,-0.419 -5.261,0 -8.425,3.65 -8.425,9.621 0,5.811 3.006,9.394 7.909,9.394 1.291,0 2.134,-0.194 3.648,-0.84 l 0.419,-0.579 0.486,-2.939 h 1.81 v 4.972 c -2.841,0.871 -4.394,1.096 -6.394,1.096 -6.648,0.002 -11.203,-4.485 -11.203,-11.069 0,-3.131 1.034,-5.909 2.971,-8.008 2.166,-2.29 4.746,-3.358 8.136,-3.358 2.194,0 4.037,0.324 6.49,1.129 z M 8.002,-35.582 h 16.626 v 5.257 H 22.95 l -0.551,-3.26 -0.45,-0.514 h -8.652 v 9.036 h 5.292 l 0.455,-0.482 0.319,-2.323 h 1.519 l 0.004,7.102 h -1.523 l -0.319,-2.36 -0.455,-0.448 h -5.292 v 8.165 h 7.456 l 0.452,-0.484 0.455,-2.744 h 1.806 v 4.713 H 8.002 v -1.323 l 1.842,-0.162 0.551,-0.454 V -33.647 L 9.843,-34.099 8.002,-34.26 Z m -19.817,21.66 v -4.971 h 1.776 l 0.45,3.002 0.452,0.483 4.941,-0.001 -0.001,-18.238 -0.551,-0.452 -2.161,-0.161 v -1.322 h 8.424 v 1.322 l -2.162,0.161 -0.549,0.452 0.002,18.238 h 4.939 l 0.452,-0.484 0.45,-3.001 h 1.776 l 0.002,4.97 z M -35.51,-34.937 c 1.807,-0.711 3.552,-1.032 5.682,-1.032 5.165,0 8.521,2.518 8.521,6.456 0,2.712 -1.322,4.196 -5.227,5.777 -2.392,1.002 -3.228,1.389 -3.905,1.81 -1.23,0.805 -1.71,1.613 -1.71,2.937 0,2.323 1.739,3.841 4.387,3.841 1.134,0 1.938,-0.195 2.907,-0.681 l 0.484,-0.547 0.484,-3.068 h 1.68 v 5.005 c -2.098,0.645 -3.682,0.905 -5.423,0.905 -4.617,0.001 -7.521,-2.453 -7.521,-6.294 -0.003,-2.582 1.319,-4.033 5.262,-5.681 2.999,-1.292 3.223,-1.388 4.034,-1.938 1.126,-0.745 1.547,-1.519 1.547,-2.843 0,-2.517 -1.808,-3.968 -4.939,-3.968 -1.421,0 -2.451,0.227 -3.551,0.743 l -0.422,0.548 -0.385,3.712 h -1.905 z m -12.876,17.886 3.323,-8.941 h -6.521 z m -0.516,3.385 -7.557,-20.204 -1.869,-0.388 v -1.323 h 6.324 v 1.323 l -2.098,0.161 -0.322,0.454 2.289,6.164 h 7.622 l 2.322,-6.164 -0.223,-0.454 -2.004,-0.161 v -1.323 h 7.328 v 1.323 l -1.937,0.388 -7.746,20.204 z m -29.794,-0.253 v -1.323 l 2.129,-0.388 5.842,-9.137 -6.489,-9.069 -2.129,-0.422 v -1.319 l 6.874,-0.004 v 1.323 l -2.162,0.194 -0.193,0.582 5.1,7.233 4.551,-7.329 -0.224,-0.45 -2.165,-0.23 v -1.323 h 8.167 v 1.323 l -2.195,0.388 -6.263,9.91 5.909,8.427 2.066,0.291 0.002,1.321 h -6.587 v -1.321 l 1.872,-0.258 0.291,-0.422 -4.587,-6.52 -4.225,6.65 0.256,0.388 1.938,0.162 v 1.323 z m -18.853,-21.658 h 16.623 v 5.262 h -1.678 l -0.548,-3.261 -0.452,-0.518 h -8.651 v 9.037 h 5.293 l 0.453,-0.483 0.322,-2.321 h 1.517 v 7.099 h -1.517 l -0.322,-2.358 -0.453,-0.452 h -5.293 v 8.169 h 7.458 l 0.452,-0.486 0.452,-2.742 h 1.807 v 4.712 h -15.462 l -0.001,-1.323 1.84,-0.161 0.55,-0.451 -10e-4,-17.789 -0.55,-0.451 -1.839,-0.159 z m -19.818,21.66 v -4.971 h 1.775 l 0.451,3.001 0.453,0.486 h 4.938 v -18.24 l -0.549,-0.453 -2.164,-0.159 v -1.324 h 8.428 v 1.324 l -2.164,0.159 -0.547,0.451 v 18.242 l 4.937,-0.002 0.455,-0.484 0.449,-3.001 h 1.777 v 4.969 z M 14.986,57.736 H 4.279 L 4.293,41.974 H -10.048 V 23.628 h 7.13 V -1.56 h -39.273 v 25.212 h 7.142 l 0.014,18.322 h -14.456 v 15.762 h -10.843 v 28.829 h 75.32 z"
                 style="fill:#231f20;fill-opacity:1;fill-rule:nonzero;stroke:none;stroke-width:1.05738509"
                 id="path835"
                 inkscape:connector-curvature="0" />
            </g>
            <g
               id="g837"
               transform="translate(419.373,390.4609)"
               style="stroke-width:1.05738509">
              <path
                 d="M 0,0 H -7.252 L -8.959,-1.739 H 1.658 V 12.136 L 0,10.469 Z m -19.563,3.556 v -34.325 h 0.029 l 1.763,1.681 h -0.015 V 1.95 h 3.548 v -27.474 h 7.178 v -0.044 -18.072 h -32.217 l -1.685,-1.665 H -5.336 V -23.9 h -7.158 V 1.95 h 3.535 l 1.707,1.606 z m 5.317,-41.569 h -17.643 l -1.74,-1.767 h 21.206 v 10.692 h -0.007 l -1.806,-1.683 h -0.01 v -0.006 z m 0.008,60.498 V 12.136 h 1.744 v 8.563 h 7.142 l 1.62,1.786 z M 10.844,15.912 H -3.732 l -1.62,-1.891 h 17.919 v 25.018 l -1.723,-1.891 z m -53.566,6.536 V 15.912 H -56.963 L -59,14.021 h 18.001 v 6.678 h 7.351 l 1.718,1.747 z M -28.389,1.95 -26.698,3.556 H -38.969 V 0 h -7.291 l -1.634,-1.739 h 10.695 V 1.95 h 3.503 1.766 z m 96.222,-92.991 c 0,-0.552 -0.447,-0.999 -0.999,-0.999 h -183.116 c -0.552,0 -1,0.447 -1,0.999 0,0.553 0.448,1 1,1 H 66.834 c 0.552,0 0.999,-0.447 0.999,-1"
                 style="fill:#a1a1a4;fill-opacity:1;fill-rule:nonzero;stroke:none;stroke-width:1.05738509"
                 id="path839"
                 inkscape:connector-curvature="0" />
            </g>
            <g
               id="g841"
               transform="translate(385.7441,361.373)"
               style="stroke-width:1.05738509">
              <path
                 d="M 0,0 H 5.24 V 31.038 H 1.699 V 3.592 H -5.648 V -14.552 L 0,-8.709 Z m 1.74,-1.709 v -7.216 l 3.434,3.678 h 5.28 V 36.058 L 6.931,32.644 V -1.709 Z m 14.124,1.715 h 5.342 L 21.204,0.003 h 0.005 v -1.499 l 5.36,5.016 V 3.563 H 19.391 L 15.843,0 h 0.014 z M 1.699,51.534 v -10.31 h 8.934 v 18.015 z m 35.524,7.705 -7.327,-7.666 V 45 l 7.327,6.941 z m -53.716,0 h 27.126 0.029 26.561 l 7.25,6.997 H -23.334 V 45 l 6.841,6.815 z M 30.16,36.058 26.377,32.644 v -3.556 l 3.783,3.554 z M 19.383,-1.689 v 0.006 h -5.291 l -3.638,-3.564 h 5.511 z m -28.28,34.331 -3.734,-3.554 v 10.469 h 46.26 L 30.16,36.058 H 10.454 -8.897 Z"
                 style="fill:#ee3123;fill-opacity:1;fill-rule:nonzero;stroke:none;stroke-width:1.05738509"
                 id="path843"
                 inkscape:connector-curvature="0" />
            </g>
            <g
               id="g845"
               transform="translate(385.7441,361.373)"
               style="stroke-width:1.05738509">
              <path
                 d="m 0,0 v -8.709 -1.983 l 1.74,1.767 v 7.216 H 6.931 V 32.644 L 5.24,31.038 V 0 Z m 19.383,-1.683 h 0.01 L 21.199,0 21.204,0.003 21.206,0.006 H 15.864 L 15.857,0 14.095,-1.681 14.092,-1.683 Z m 6.994,34.327 -1.707,-1.606 v -3.689 l 1.707,1.739 z M -5.648,3.592 H 1.699 V 31.038 H -0.067 V 5.212 h -7.266 v -21.429 l 1.685,1.665 z M 10.633,41.224 H 1.699 v 10.31 L -0.02,49.787 V 41.224 H -14.265 V 27.349 l 1.634,1.739 v 10.469 h 46.26 l 1.658,1.667 H 21.135 19.391 Z m -36.004,1.885 2.037,1.891 v 21.236 h 67.807 l 1.723,1.891 H -25.371 Z M 29.896,45 28.277,43.109 v 6.678 l 1.619,1.786 z"
                 style="fill:#ffffff;fill-opacity:1;fill-rule:nonzero;stroke:none;stroke-width:1.05738509"
                 id="path847"
                 inkscape:connector-curvature="0" />
            </g>
            <g
               id="g849"
               transform="translate(488.7979,279.6045)"
               style="stroke-width:1.05738509">
              <path
                 d="M 0,0 C 0.232,0 0.439,0.017 0.439,0.294 0.439,0.519 0.235,0.56 0.046,0.56 H -0.327 V 0 Z m -0.327,-1.02 h -0.276 v 1.814 h 0.69 c 0.428,0 0.64,-0.16 0.64,-0.516 0,-0.325 -0.206,-0.466 -0.469,-0.499 L 0.771,-1.02 H 0.465 l -0.479,0.788 h -0.313 z m -1.265,0.911 c 0,0.903 0.733,1.566 1.596,1.566 0.855,0 1.586,-0.663 1.586,-1.566 0,-0.911 -0.731,-1.575 -1.586,-1.575 -0.863,0 -1.596,0.664 -1.596,1.575 m 1.596,-1.312 c 0.711,0 1.269,0.557 1.269,1.312 0,0.743 -0.558,1.304 -1.269,1.304 -0.718,0 -1.279,-0.561 -1.279,-1.304 0,-0.755 0.561,-1.312 1.279,-1.312"
                 style="fill:#231f20;fill-opacity:1;fill-rule:nonzero;stroke:none;stroke-width:1.05738509"
                 id="path851"
                 inkscape:connector-curvature="0" />
            </g>
          </g>
        </g>
      </g>
    </g>
  </g>
</svg>
