<?xml version="1.0" encoding="UTF-8" standalone="no"?>
<svg
   xmlns:dc="http://purl.org/dc/elements/1.1/"
   xmlns:cc="http://creativecommons.org/ns#"
   xmlns:rdf="http://www.w3.org/1999/02/22-rdf-syntax-ns#"
   xmlns:svg="http://www.w3.org/2000/svg"
   xmlns="http://www.w3.org/2000/svg"
   xmlns:sodipodi="http://sodipodi.sourceforge.net/DTD/sodipodi-0.dtd"
   xmlns:inkscape="http://www.inkscape.org/namespaces/inkscape"
   aria-hidden="true"
   focusable="false"
   data-prefix="fas"
   data-icon="graduation-cap"
   class="svg-inline--fa fa-graduation-cap fa-w-20"
   role="img"
   viewBox="0 0 512 512"
   version="1.1"
   id="svg865"
   sodipodi:docname="archive-solid.svg"
   width="512"
   height="512"
   inkscape:version="1.0.1 (3bc2e813f5, 2020-09-07)"
   inkscape:export-filename="C:\Users\zjx8rj\OneDrive\archive-solid.png"
   inkscape:export-xdpi="150"
   inkscape:export-ydpi="150">
  <metadata
     id="metadata871">
    <rdf:RDF>
      <cc:Work
         rdf:about="">
        <dc:format>image/svg+xml</dc:format>
        <dc:type
           rdf:resource="http://purl.org/dc/dcmitype/StillImage" />
        <dc:title />
      </cc:Work>
    </rdf:RDF>
  </metadata>
  <defs
     id="defs869" />
  <sodipodi:namedview
     pagecolor="#ffffff"
     bordercolor="#666666"
     borderopacity="1"
     objecttolerance="10"
     gridtolerance="10"
     guidetolerance="10"
     inkscape:pageopacity="0"
     inkscape:pageshadow="2"
     inkscape:window-width="1920"
     inkscape:window-height="1001"
     id="namedview867"
     showgrid="false"
     inkscape:zoom="0.44194174"
     inkscape:cx="83.963299"
     inkscape:cy="442.1061"
     inkscape:window-x="-9"
     inkscape:window-y="-9"
     inkscape:window-maximized="1"
     inkscape:current-layer="svg865"
     inkscape:document-rotation="0" />
  <path
     fill="currentColor"
     d="M 186,315.99998 C 186,321.53124 190.46874,326 196,326 h 120 c 5.53125,0 9.99999,-4.46875 9.99999,-10.00002 V 225.99999 H 186 Z m 50.00001,-66.24999 c 0,-2.0625 1.6875,-3.75 3.74999,-3.75 h 32.49999 c 2.06251,0 3.75001,1.6875 3.75001,3.75 v 2.5 c 0,2.0625 -1.6875,3.74999 -3.75001,3.74999 H 239.75 c -2.06249,0 -3.74999,-1.68749 -3.74999,-3.74999 z m 89.99998,-63.75 H 186 c -5.53125,0 -10,4.46875 -10,10 v 14.99999 c 0,2.75 2.25,5.00001 5,5.00001 h 150 c 2.74999,0 5,-2.25001 5,-5.00001 v -14.99999 c 0,-5.53125 -4.46876,-10 -10.00001,-10 z"
     id="path2-3"
     style="fill:#9e9e9e;fill-opacity:1;stroke-width:0.3125" />
</svg>
