<?xml version="1.0" encoding="UTF-8" standalone="no"?>
<!-- Created with Inkscape (http://www.inkscape.org/) -->

<svg
   xmlns:dc="http://purl.org/dc/elements/1.1/"
   xmlns:cc="http://creativecommons.org/ns#"
   xmlns:rdf="http://www.w3.org/1999/02/22-rdf-syntax-ns#"
   xmlns:svg="http://www.w3.org/2000/svg"
   xmlns="http://www.w3.org/2000/svg"
   xmlns:sodipodi="http://sodipodi.sourceforge.net/DTD/sodipodi-0.dtd"
   xmlns:inkscape="http://www.inkscape.org/namespaces/inkscape"
   width="80mm"
   height="80mm"
   viewBox="0 0 80 80"
   version="1.1"
   id="svg992"
   inkscape:version="0.92.2 (5c3e80d, 2017-08-06)"
   sodipodi:docname="IMS2015.svg">
  <defs
     id="defs986" />
  <sodipodi:namedview
     id="base"
     pagecolor="#ffffff"
     bordercolor="#666666"
     borderopacity="1.0"
     inkscape:pageopacity="0.0"
     inkscape:pageshadow="2"
     inkscape:zoom="1.979899"
     inkscape:cx="156.5569"
     inkscape:cy="104.96932"
     inkscape:document-units="mm"
     inkscape:current-layer="layer1"
     showgrid="false"
     fit-margin-top="0"
     fit-margin-left="0"
     fit-margin-right="0"
     fit-margin-bottom="0"
     inkscape:window-width="2736"
     inkscape:window-height="1699"
     inkscape:window-x="-13"
     inkscape:window-y="-13"
     inkscape:window-maximized="1" />
  <metadata
     id="metadata989">
    <rdf:RDF>
      <cc:Work
         rdf:about="">
        <dc:format>image/svg+xml</dc:format>
        <dc:type
           rdf:resource="http://purl.org/dc/dcmitype/StillImage" />
        <dc:title></dc:title>
      </cc:Work>
    </rdf:RDF>
  </metadata>
  <g
     inkscape:label="Layer 1"
     inkscape:groupmode="layer"
     id="layer1"
     transform="translate(91.790073,-111.15085)">
    <g
       id="g2183"
       transform="matrix(0.90953063,0,0,0.91090553,-6.9721486,21.642532)">
      <path
         d="m -37.230248,126.75155 c 0.478366,0.80645 0.878064,1.65806 1.179689,2.53718 0.307269,0.88724 0.511175,1.80234 0.631119,2.71886 0.228953,1.83691 0.07726,3.68053 -0.396875,5.39891 -0.941211,3.44382 -3.030361,6.40683 -5.834592,8.42151 -2.794706,2.03525 -6.4135,2.9821 -9.978355,2.52734 -1.780435,-0.22187 -3.547216,-0.77721 -5.174545,-1.6648 -0.811636,-0.44376 -1.59452,-0.9634 -2.319091,-1.56421 -0.722242,-0.59518 -1.404479,-1.2827 -1.996757,-2.00343 -0.617362,-0.75671 -1.149315,-1.54764 -1.612583,-2.41018 -0.457517,-0.85725 -0.843104,-1.76671 -1.124232,-2.71497 -0.566632,-1.89477 -0.752546,-3.93277 -0.511246,-5.94749 0.23428,-2.0133 0.899584,-4.00332 1.95132,-5.79049 0.524898,-0.89429 1.150655,-1.73496 1.857305,-2.50402 0.355529,-0.38311 0.727745,-0.75106 1.120492,-1.09396 0.195686,-0.17251 0.396875,-0.34043 0.600675,-0.50165 l 0.311574,-0.2413 0.296298,-0.22049 0.34036,-0.23142 0.329212,-0.21237 c 0.220486,-0.14041 0.445241,-0.27411 0.674158,-0.40217 0.456107,-0.25647 0.931404,-0.47978 1.414957,-0.68509 0.968763,-0.40358 1.981623,-0.69568 3.01378,-0.86678 2.061669,-0.34854 4.17696,-0.20531 6.133783,0.35419 1.954037,0.56515 3.757789,1.51306 5.291667,2.74108 1.535289,1.21815 2.820812,2.71604 3.782837,4.32435 z m -2.681464,1.8288 -0.0056,-0.006 c -0.944033,-1.17264 -2.10573,-2.08915 -3.388431,-2.72027 -1.283052,-0.62689 -2.663825,-0.97261 -4.018491,-1.04987 -1.356114,-0.084 -2.677513,0.0716 -3.919009,0.40499 -0.620254,0.16827 -1.223822,0.38029 -1.805482,0.63959 -0.292135,0.12523 -0.575768,0.27128 -0.856862,0.42157 -0.14224,0.0744 -0.281269,0.15169 -0.420581,0.23424 l -0.203941,0.12559 -0.18729,0.11853 -0.21911,0.14464 -0.195827,0.13617 c -0.130775,0.0924 -0.260315,0.18909 -0.385833,0.28822 -0.251919,0.19826 -0.498863,0.40499 -0.730215,0.62689 -0.469935,0.44097 -0.897114,0.92745 -1.283123,1.45239 -0.771561,1.0488 -1.354314,2.26271 -1.711361,3.56799 -0.352778,1.30492 -0.476955,2.70228 -0.327977,4.10351 0.07578,0.70027 0.21082,1.403 0.421816,2.09197 0.207822,0.68616 0.497452,1.37548 0.83372,2.01048 0.362267,0.66993 0.766163,1.28023 1.245588,1.86726 0.476955,0.58173 1.01286,1.12751 1.60969,1.60969 1.190625,0.96601 2.605616,1.706 4.136743,2.12478 1.528233,0.42446 3.168262,0.52257 4.77199,0.27975 1.60408,-0.24377 3.166886,-0.84307 4.546247,-1.74018 1.379361,-0.89863 2.556228,-2.1167 3.388784,-3.53346 0.835025,-1.41393 1.320094,-3.01519 1.443919,-4.61363 0.119945,-1.60126 -0.09349,-3.19299 -0.581378,-4.65102 -0.480836,-1.45803 -1.233311,-2.78201 -2.157941,-3.93418"
         style="fill:#79c6d4;fill-opacity:1;fill-rule:nonzero;stroke:none;stroke-width:0.03527778"
         id="path1549"
         inkscape:connector-curvature="0" />
      <path
         d="m -38.449801,129.29967 c 0.832555,1.33526 1.395942,2.82786 1.631597,4.35857 0.2413,1.53246 0.168275,3.09386 -0.190147,4.56565 -0.6985,2.95028 -2.473325,5.54781 -4.902906,7.2566 -2.418645,1.72544 -5.537165,2.49178 -8.54957,2.02322 -3.006725,-0.42856 -5.906276,-2.09628 -7.824223,-4.59599 -0.980052,-1.27177 -1.711643,-2.71463 -2.137481,-4.28414 -0.416313,-1.56421 -0.537281,-3.22756 -0.311574,-4.86198 0.221862,-1.63266 0.785637,-3.23427 1.655304,-4.66443 0.435328,-0.71402 0.941212,-1.39065 1.518321,-2.00237 0.288149,-0.30585 0.591326,-0.59795 0.909779,-0.87383 0.158467,-0.13758 0.319722,-0.26987 0.486163,-0.40216 l 0.264583,-0.2025 0.221897,-0.16263 c 1.4097,-0.99236 2.980973,-1.64818 4.643967,-1.95015 0.828358,-0.14993 1.671849,-0.19826 2.504052,-0.17357 0.834955,0.0318 1.660525,0.1584 2.461296,0.35701 3.212042,0.81033 5.957006,2.93511 7.606595,5.59329 z m -1.445331,0.99095 c -1.644297,-2.19816 -4.157839,-3.53766 -6.714067,-3.82023 -2.549243,-0.30586 -5.113902,0.34466 -7.156168,1.69792 l -0.225707,0.15416 -0.176389,0.12559 c -0.124178,0.0896 -0.249414,0.18591 -0.37084,0.28399 -0.244052,0.19544 -0.476921,0.40216 -0.698783,0.62265 -0.443477,0.43709 -0.854392,0.91369 -1.209675,1.43334 -0.716844,1.03328 -1.238991,2.21438 -1.528233,3.4671 -0.599722,2.49555 -0.194451,5.29448 1.179336,7.60271 0.70418,1.18075 1.615334,2.21153 2.727255,3.04412 1.109204,0.82134 2.395044,1.44529 3.768796,1.77341 1.371317,0.32523 2.822222,0.39123 4.234744,0.14605 1.412523,-0.24264 2.775656,-0.79234 3.982509,-1.58887 1.207205,-0.79665 2.229908,-1.87011 2.982383,-3.09919 0.750712,-1.23331 1.216731,-2.62643 1.380773,-4.03754 0.324908,-2.8321 -0.536223,-5.65821 -2.175934,-7.80521"
         style="fill:#b8e5e9;fill-opacity:1;fill-rule:nonzero;stroke:none;stroke-width:0.03527778"
         id="path1551"
         inkscape:connector-curvature="0" />
      <path
         d="m -42.785088,144.33121 c -1.310569,0.95497 -3.016603,1.35749 -4.628762,1.08726 -1.613676,-0.23812 -3.14893,-1.13675 -4.135614,-2.479 -1.004464,-1.33668 -1.460606,-3.09351 -1.19313,-4.77767 0.263208,-1.67852 1.236134,-3.24944 2.625055,-4.23757 1.416756,-0.98778 3.210948,-1.36278 4.883821,-1.04704 1.674283,0.31397 3.179233,1.34337 4.092575,2.7312 0.937331,1.3903 1.25977,3.1309 0.9398,4.73357 -0.289278,1.60938 -1.244247,3.07834 -2.583745,3.98925 z m -0.08396,-0.11716 c 0.643467,-0.4615 1.194859,-1.04986 1.5875,-1.73073 0.394053,-0.68086 0.620184,-1.44427 0.706967,-2.20627 0.07973,-0.76623 -0.03175,-1.53493 -0.26035,-2.23908 -0.237067,-0.70167 -0.635353,-1.34373 -1.10243,-1.8549 -0.972962,-1.0721 -2.276828,-1.64536 -3.567995,-1.74731 -1.285487,-0.11995 -2.562931,0.27269 -3.546828,0.96167 l -0.205317,0.14746 -0.180693,0.14464 c -0.118498,0.0995 -0.232727,0.20391 -0.341735,0.31574 -0.216359,0.22048 -0.423052,0.45473 -0.599441,0.71225 -0.358422,0.51012 -0.650451,1.08727 -0.80465,1.71592 -0.344629,1.24142 -0.228883,2.68287 0.429683,3.93135 0.347521,0.64206 0.802146,1.21144 1.386452,1.67852 0.584129,0.45325 1.27067,0.81844 2.020323,1.00048 0.745384,0.17639 1.540581,0.22186 2.313517,0.0798 0.7747,-0.14044 1.514475,-0.46012 2.164997,-0.90953"
         style="fill:#f1a736;fill-opacity:1;fill-rule:nonzero;stroke:none;stroke-width:0.03527778"
         id="path1553"
         inkscape:connector-curvature="0" />
      <path
         d="m -42.847176,144.28711 -7.897249,-9.39274 1.762372,-1.24002 6.175093,10.6038 -0.04022,0.029"
         style="fill:#f1a736;fill-opacity:1;fill-rule:nonzero;stroke:none;stroke-width:0.03527778"
         id="path1555"
         inkscape:connector-curvature="0" />
      <path
         d="m -42.310954,141.68675 c 0.282575,0.41205 0.38735,0.93592 0.289278,1.41817 -0.09102,0.48225 -0.376062,0.92601 -0.775759,1.20728 -0.398286,0.28924 -0.909461,0.41864 -1.404055,0.35126 -0.494948,-0.0634 -0.970139,-0.3404 -1.273528,-0.74676 -0.315384,-0.41208 -0.45332,-0.95113 -0.376061,-1.47324 0.07161,-0.51964 0.381705,-1.01141 0.81033,-1.30634 0.443795,-0.30868 0.997656,-0.41486 1.506009,-0.30197 0.508705,0.10759 0.95638,0.42862 1.220964,0.84772 z m -0.135114,0.0938 c -0.281164,-0.36653 -0.704145,-0.59267 -1.139472,-0.63958 -0.43427,-0.0494 -0.880534,0.072 -1.215673,0.31855 -0.356658,0.25083 -0.599369,0.62548 -0.691797,1.0474 -0.09349,0.42016 -0.0095,0.88583 0.230364,1.25236 0.243769,0.37924 0.639233,0.64904 1.088672,0.74151 0.446264,0.095 0.936978,-0.004 1.318684,-0.26734 0.385939,-0.2661 0.651933,-0.68901 0.723547,-1.14938 0.07444,-0.45756 -0.04269,-0.93698 -0.314325,-1.30352"
         style="fill:#f1a736;fill-opacity:1;fill-rule:nonzero;stroke:none;stroke-width:0.03527778"
         id="path1557"
         inkscape:connector-curvature="0" />
      <path
         d="m -42.808371,144.29978 c -0.758119,0.54818 -1.736372,0.78108 -2.678994,0.65017 -0.939801,-0.12101 -1.857728,-0.62978 -2.468034,-1.39877 -0.631155,-0.78246 -0.936943,-1.82986 -0.800806,-2.85926 0.07197,-0.50976 0.238408,-1.01424 0.511528,-1.46226 0.268464,-0.44204 0.649076,-0.84597 1.054065,-1.13665 0.450497,-0.3101 0.928899,-0.51259 1.444308,-0.62301 0.513997,-0.10478 1.044575,-0.0924 1.548694,0.0123 1.014236,0.2166 1.903236,0.86536 2.418645,1.7145 0.523522,0.84455 0.688975,1.87254 0.48648,2.80141 -0.19438,0.93027 -0.744361,1.77235 -1.515886,2.30152 z m -0.0388,-0.054 c 0.373591,-0.26984 0.690386,-0.6102 0.927452,-1.00045 0.237067,-0.38981 0.381706,-0.8322 0.440973,-1.27881 0.115711,-0.89853 -0.162631,-1.81328 -0.712259,-2.48039 -0.544336,-0.67239 -1.335264,-1.09678 -2.149828,-1.19873 -0.808919,-0.11042 -1.657703,0.10195 -2.290268,0.5595 -0.352778,0.24236 -0.623006,0.52352 -0.846279,0.86537 -0.22158,0.33619 -0.38982,0.71366 -0.47237,1.11618 -0.180657,0.79905 -0.0441,1.69334 0.397969,2.42394 0.449368,0.75251 1.211404,1.31445 2.098993,1.51303 0.439561,0.0925 0.903816,0.10626 1.351844,0.0167 0.447675,-0.0938 0.874889,-0.27701 1.253773,-0.53633"
         style="fill:#f1a736;fill-opacity:1;fill-rule:nonzero;stroke:none;stroke-width:0.03527778"
         id="path1559"
         inkscape:connector-curvature="0" />
      <path
         d="m -42.889863,144.31604 c -0.418747,-0.68612 -0.699911,-1.43302 -0.866775,-2.21019 -0.154164,-0.77717 -0.198261,-1.58609 -0.06068,-2.37843 0.131233,-0.78986 0.399697,-1.5628 0.792691,-2.27118 0.381706,-0.71508 0.872067,-1.36983 1.405467,-1.99002 l 0.54857,0.5775 c -0.605014,0.4632 -1.141237,1.01565 -1.582209,1.64006 -0.428625,0.63112 -0.764822,1.33527 -0.930275,2.08915 -0.162278,0.75071 -0.188736,1.54341 -0.03845,2.30682 0.144639,0.76059 0.425803,1.51165 0.860073,2.147 l -0.128412,0.0893"
         style="fill:#f1a736;fill-opacity:1;fill-rule:nonzero;stroke:none;stroke-width:0.03527778"
         id="path1561"
         inkscape:connector-curvature="0" />
      <path
         d="m -42.849646,144.28461 c -0.224719,-0.46743 -0.354189,-0.9772 -0.376414,-1.49684 -0.02046,-0.51788 0.08819,-1.05269 0.352778,-1.51306 0.259292,-0.46144 0.656167,-0.83644 1.09855,-1.11619 0.443442,-0.28363 0.931333,-0.48507 1.430161,-0.63641 l 0.07726,0.26987 c -0.48507,0.12806 -0.960614,0.30339 -1.390298,0.55669 -0.428625,0.25082 -0.813153,0.58561 -1.072444,1.01035 -0.263172,0.42157 -0.388409,0.92463 -0.386997,1.42734 0.0028,0.50165 0.110066,1.01029 0.312913,1.47454 l -0.04551,0.0237"
         style="fill:#f1a736;fill-opacity:1;fill-rule:nonzero;stroke:none;stroke-width:0.03527778"
         id="path1563"
         inkscape:connector-curvature="0" />
      <path
         d="m -42.892332,144.31879 c -0.45085,-0.62396 -1.061156,-1.14508 -1.728258,-1.53913 -0.665692,-0.40252 -1.419226,-0.64629 -2.181261,-0.74965 -0.764822,-0.10196 -1.542309,-0.0247 -2.280673,0.16404 -0.737376,0.20249 -1.438663,0.51682 -2.081107,0.92886 l -0.355529,-0.71261 c 0.763446,-0.28928 1.546154,-0.52917 2.349853,-0.64347 0.799112,-0.12806 1.617521,-0.11853 2.404533,0.0289 0.790928,0.139 1.537759,0.45614 2.215797,0.86536 0.673806,0.42157 1.280231,0.94122 1.783292,1.5681 l -0.126647,0.0896"
         style="fill:#f1a736;fill-opacity:1;fill-rule:nonzero;stroke:none;stroke-width:0.03527778"
         id="path1565"
         inkscape:connector-curvature="0" />
      <path
         d="m -42.845765,144.28986 c -0.367948,-0.34713 -0.80892,-0.62261 -1.280231,-0.79653 -0.472369,-0.17216 -0.987778,-0.22578 -1.474258,-0.12101 -0.486481,0.0991 -0.933168,0.3458 -1.314733,0.66397 -0.384598,0.31849 -0.710918,0.70446 -0.997691,1.1176 l -0.227259,-0.16373 c 0.312561,-0.41627 0.668232,-0.8075 1.085885,-1.12888 0.414514,-0.31962 0.899584,-0.56621 1.423459,-0.65159 0.522111,-0.0924 1.062566,-0.0137 1.543403,0.1831 0.480836,0.19861 0.916164,0.49205 1.278819,0.86151 l -0.03739,0.0356"
         style="fill:#f1a736;fill-opacity:1;fill-rule:nonzero;stroke:none;stroke-width:0.03527778"
         id="path1567"
         inkscape:connector-curvature="0" />
      <path
         d="m -55.311522,125.10902 0.06629,-0.0536 c -0.01517,-0.0236 -0.03736,-0.008 -0.06629,0.0536"
         style="fill:#f1a736;fill-opacity:1;fill-rule:nonzero;stroke:none;stroke-width:0.03527778"
         id="path1569"
         inkscape:connector-curvature="0" />
      <path
         d="m -41.164426,130.50969 c -2.075392,-2.00942 -4.849284,-2.85115 -7.510322,-2.54105 -0.0084,0.001 -0.01517,0.001 -0.02357,0.002 -0.05648,0.007 -0.11437,0.0138 -0.172261,0.0222 -1.335158,0.14041 -2.090491,-0.46567 -2.208989,-0.56903 -0.40072,-0.36654 -0.701428,-0.78564 -0.778581,-1.20721 h -3.428294 c -0.209585,2.1082 -0.873795,6.26992 -1.055582,5.66773 0,0 0.217735,0.7994 -0.129787,2.64442 -0.945092,3.19723 -0.123754,6.79944 2.436636,9.27707 1.909939,1.84919 4.411099,2.71075 6.872147,2.59497 -2.04791,-0.2001 -4.000606,-1.25843 -5.276533,-3.07305 -2.326252,-3.30482 -1.532502,-7.86871 1.773414,-10.19493 3.303412,-2.32621 7.87012,-1.53246 10.194926,1.77236 1.533525,2.18122 1.711325,4.90996 0.702733,7.18361 2.288823,-3.62691 1.806576,-8.47901 -1.395941,-11.57958"
         style="fill:#f36954;fill-opacity:1;fill-rule:nonzero;stroke:none;stroke-width:0.03527778"
         id="path1571"
         inkscape:connector-curvature="0" />
      <path
         d="m -39.768485,142.08927 c 2.288823,-3.62691 1.806576,-8.47901 -1.395941,-11.57958 -2.075392,-2.00942 -4.849284,-2.85115 -7.510322,-2.54105 -0.0084,0.001 -0.01517,0.001 -0.02357,0.002 -0.05648,0.007 -0.11437,0.0138 -0.172261,0.0222 -1.335158,0.14041 -2.090491,-0.46567 -2.208989,-0.56903 -0.621206,-0.56797 -1.00584,-1.26118 -0.68199,-1.90183 1.059709,-2.08915 3.891598,-0.43815 3.891598,-0.43815 0,-0.82832 -1.466251,-2.47791 -3.640808,-3.09104 -4.274538,-1.21002 -6.7842,2.32622 -6.7842,2.32622 1.73923,-1.20438 2.84593,-1.01282 2.84593,-1.01282 -3.089699,1.11336 -3.501743,3.39689 -3.501743,3.39689 1.28972,-1.61501 2.574184,-1.77517 2.574184,-1.77517 -0.917928,1.91558 -0.555237,4.99956 0.03457,6.95642 0,0 0.217735,0.7994 -0.129787,2.64442 -0.945092,3.19723 -0.123754,6.79944 2.436636,9.27707 1.909939,1.84919 4.411099,2.71075 6.872147,2.59497 -0.0068,-0.001 -0.01104,-0.001 -0.01655,-0.003 -4.34908,-0.13367 -7.834137,-3.70127 -7.834137,-8.08489 0,-0.46037 0.03979,-0.90946 0.11423,-1.34902 h -0.0025 c 0,0 0.702769,-4.01179 0.165065,-5.75345 -0.522146,-1.68946 -0.439596,-2.47509 -0.439596,-2.47509 0,0 0.386009,2.26271 1.561465,2.26412 0.686117,0 0.314325,-1.80798 0.314325,-1.80798 0,0 0.409293,1.07068 1.11058,1.13136 0.55245,0.0455 0.38735,-0.93134 0.38735,-0.93134 0,0 0.806026,1.12043 4.267517,0.85584 v 0.002 c 0.202848,-0.0166 0.405272,-0.0261 0.610588,-0.0261 4.466238,0 8.090324,3.62161 8.090324,8.08919 0,1.35855 -0.336197,2.63878 -0.9271,3.76343 -0.0028,0.004 -0.0042,0.008 -0.0071,0.0123"
         style="fill:#e13233;fill-opacity:1;fill-rule:nonzero;stroke:none;stroke-width:0.03527778"
         id="path1573"
         inkscape:connector-curvature="0" />
      <path
         d="m -51.699394,123.08055 c 0,0 -0.545854,-0.22049 -1.331454,0.0896 0,0 0.819926,0.32808 1.050184,0.44521 0,0 0.249414,-0.3803 0.28127,-0.53481"
         style="fill:#f7f8f8;fill-opacity:1;fill-rule:nonzero;stroke:none;stroke-width:0.03527778"
         id="path1575"
         inkscape:connector-curvature="0" />
      <path
         d="m -73.264313,166.16209 h 2.036466 v -7.49364 h -2.036466 z"
         style="fill:#e13233;fill-opacity:1;fill-rule:nonzero;stroke:none;stroke-width:0.03527778"
         id="path1731"
         inkscape:connector-curvature="0" />
      <path
         d="m -68.641266,158.66845 h 2.006671 l 1.475634,4.99953 1.475987,-4.99953 h 2.006282 l 1.226609,7.49364 h -1.922216 l -0.634047,-4.46899 -1.539135,4.46899 h -1.236098 l -1.528233,-4.46899 -0.634048,4.46899 h -1.923591 l 1.226185,-7.49364"
         style="fill:#e13233;fill-opacity:1;fill-rule:nonzero;stroke:none;stroke-width:0.03527778"
         id="path1733"
         inkscape:connector-curvature="0" />
      <path
         d="m -58.621283,163.89658 c 0.517878,0.48934 1.038895,0.73876 1.558572,0.73876 0.478014,0 0.841693,-0.30163 0.841693,-0.69713 0,-0.3641 -0.218969,-0.54998 -0.821161,-0.72774 -0.208245,-0.0622 -0.354295,-0.10337 -0.425838,-0.12418 -0.416313,-0.13476 -0.676593,-0.24941 -0.915141,-0.41603 -0.541584,-0.39536 -0.853017,-0.98665 -0.853017,-1.6728 0,-1.43482 1.18678,-2.47509 2.796188,-2.47509 0.656096,0 1.237474,0.15695 1.758526,0.45752 0.144675,0.0935 0.227225,0.14608 0.425803,0.30166 l -0.802146,1.4552 c -0.403648,-0.3955 -0.810436,-0.57188 -1.267954,-0.57188 -0.476673,0 -0.798971,0.26045 -0.798971,0.64491 0,0.23855 0.145909,0.44662 0.41589,0.56085 0.0303,0.0318 0.07193,0.0413 0.103328,0.0635 0.05253,0.0194 0.103364,0.0303 0.135079,0.0414 0.03045,0.01 0.166864,0.0511 0.394088,0.11423 0.416313,0.12417 0.749653,0.24944 1.008874,0.39412 0.613234,0.34329 0.976912,0.99797 0.976912,1.80936 0,1.51723 -1.163073,2.53573 -2.899128,2.53573 -0.696066,0 -1.372658,-0.16686 -1.954071,-0.48782 -0.187678,-0.11437 -0.301907,-0.18739 -0.560846,-0.3846 l 0.88332,-1.55995"
         style="fill:#e13233;fill-opacity:1;fill-rule:nonzero;stroke:none;stroke-width:0.03527778"
         id="path1735"
         inkscape:connector-curvature="0" />
      <path
         d="m -49.828296,162.79553 c 0.71822,-0.79086 0.977159,-1.24852 0.977159,-1.72639 0,-0.54998 -0.352778,-0.92466 -0.884696,-0.92466 -0.538692,0 -0.902759,0.38417 -0.902759,0.99769 0,0.0729 0.0098,0.13504 0.04163,0.26031 h -2.038385 c -0.0109,-0.12527 -0.0109,-0.24945 -0.0109,-0.35415 0,-1.51737 1.21666,-2.59761 2.921318,-2.59761 1.747343,0 2.963051,1.03889 2.963051,2.53545 0,0.43712 -0.09384,0.8213 -0.29076,1.12324 -0.06202,0.0938 -0.270263,0.34326 -0.592702,0.74828 -0.208103,0.23841 -0.393982,0.44662 -0.571747,0.61309 l -1.205935,1.09153 2.775373,-0.0841 v 1.68385 h -6.237146 l 3.056502,-3.36656"
         style="fill:#e13233;fill-opacity:1;fill-rule:nonzero;stroke:none;stroke-width:0.03527778"
         id="path1737"
         inkscape:connector-curvature="0" />
      <path
         d="m -43.533329,162.43185 c 0,1.39171 0.436739,2.16218 1.237544,2.16218 0.800453,0 1.237545,-0.77047 1.237545,-2.16218 0,-1.39319 -0.437092,-2.14132 -1.237545,-2.14132 -0.800805,0 -1.237544,0.74813 -1.237544,2.14132 z m 1.237544,-3.89858 c 1.9431,0 3.231445,1.56958 3.231445,3.89858 0,2.33857 -1.288345,3.8971 -3.231445,3.8971 -1.944511,0 -3.25508,-1.55853 -3.25508,-3.8971 0,-2.329 1.310569,-3.89858 3.25508,-3.89858"
         style="fill:#e13233;fill-opacity:1;fill-rule:nonzero;stroke:none;stroke-width:0.03527778"
         id="path1739"
         inkscape:connector-curvature="0" />
      <path
         d="m -36.669332,166.16209 v -5.77811 l -1.059744,0.0621 v -1.77765 h 3.098095 l -0.01129,7.49364 h -2.027062"
         style="fill:#e13233;fill-opacity:1;fill-rule:nonzero;stroke:none;stroke-width:0.03527778"
         id="path1741"
         inkscape:connector-curvature="0" />
      <path
         d="m -32.010195,163.96961 c 0.675217,0.47833 1.372658,0.71688 2.03835,0.71688 0.830792,0 1.381831,-0.41494 1.381831,-1.02803 0,-0.62438 -0.633589,-1.05022 -1.548695,-1.05022 -0.519642,0 -1.018469,0.0939 -1.745897,0.332 l 0.675216,-4.27179 h 4.220987 v 1.66328 l -2.818342,-0.0208 -0.1651,1.10105 0.06174,-0.0205 c 0.291042,-0.0715 0.498828,-0.0938 0.748242,-0.0938 1.580797,0 2.640542,0.947 2.640542,2.37038 0,1.56958 -1.372659,2.67201 -3.358445,2.67201 -0.851606,0 -1.631597,-0.19829 -2.4003,-0.60374 l 0.269875,-1.76664"
         style="fill:#e13233;fill-opacity:1;fill-rule:nonzero;stroke:none;stroke-width:0.03527778"
         id="path1743"
         inkscape:connector-curvature="0" />
      <path
         d="m -58.527867,154.87609 h 0.286494 v -2.28603 h -0.286494 z"
         style="fill:#79c6d4;fill-opacity:1;fill-rule:nonzero;stroke:none;stroke-width:0.03527778"
         id="path1745"
         inkscape:connector-curvature="0" />
      <path
         d="m -57.609798,152.5873 h 1.163037 v 0.2533 h -0.878064 v 0.71395 h 0.8654 v 0.25217 h -0.8654 v 0.81565 h 0.878064 v 0.25372 h -1.163037 v -2.28879"
         style="fill:#79c6d4;fill-opacity:1;fill-rule:nonzero;stroke:none;stroke-width:0.03527778"
         id="path1747"
         inkscape:connector-curvature="0" />
      <path
         d="m -55.899955,152.5873 h 1.163073 v 0.2533 h -0.8763 v 0.71395 h 0.862542 v 0.25217 h -0.862542 v 0.81565 h 0.8763 v 0.25372 h -1.163073 v -2.28879"
         style="fill:#79c6d4;fill-opacity:1;fill-rule:nonzero;stroke:none;stroke-width:0.03527778"
         id="path1749"
         inkscape:connector-curvature="0" />
      <path
         d="m -54.189653,152.5873 h 1.163073 v 0.2533 h -0.8763 v 0.71395 h 0.863882 v 0.25217 h -0.863882 v 0.81565 h 0.8763 v 0.25372 h -1.163073 v -2.28879"
         style="fill:#79c6d4;fill-opacity:1;fill-rule:nonzero;stroke:none;stroke-width:0.03527778"
         id="path1751"
         inkscape:connector-curvature="0" />
      <path
         d="m -51.378473,153.95816 c 0.11303,0 0.202601,0.0952 0.202601,0.20423 0,0.1101 -0.08957,0.20246 -0.202601,0.20246 -0.108973,0 -0.198543,-0.0924 -0.198543,-0.20246 0,-0.10901 0.08957,-0.20423 0.198543,-0.20423"
         style="fill:#79c6d4;fill-opacity:1;fill-rule:nonzero;stroke:none;stroke-width:0.03527778"
         id="path1753"
         inkscape:connector-curvature="0" />
      <path
         d="m -49.347107,152.49484 0.885825,1.95972 0.88332,-1.95972 0.47692,2.38125 h -0.296262 l -0.278377,-1.57236 -0.785601,1.65491 -0.781086,-1.65781 -0.285397,1.57526 h -0.296263 l 0.476921,-2.38125"
         style="fill:#79c6d4;fill-opacity:1;fill-rule:nonzero;stroke:none;stroke-width:0.03527778"
         id="path1755"
         inkscape:connector-curvature="0" />
      <path
         d="m -46.974394,152.5873 h 1.360381 v 0.2533 h -0.542925 v 2.03549 h -0.286808 v -2.03549 h -0.530648 v -0.2533"
         style="fill:#79c6d4;fill-opacity:1;fill-rule:nonzero;stroke:none;stroke-width:0.03527778"
         id="path1757"
         inkscape:connector-curvature="0" />
      <path
         d="m -45.33426,152.5873 h 1.358547 v 0.2533 h -0.542925 v 2.03549 h -0.285044 v -2.03549 h -0.530578 v -0.2533"
         style="fill:#79c6d4;fill-opacity:1;fill-rule:nonzero;stroke:none;stroke-width:0.03527778"
         id="path1759"
         inkscape:connector-curvature="0" />
      <path
         d="m -43.803204,154.27249 h 0.815661 v -0.2413 h -0.815661 z"
         style="fill:#79c6d4;fill-opacity:1;fill-rule:nonzero;stroke:none;stroke-width:0.03527778"
         id="path1761"
         inkscape:connector-curvature="0" />
      <path
         d="m -42.487343,154.36485 c 0.129469,0.19967 0.2921,0.29887 0.491772,0.29887 0.248356,0 0.428625,-0.17748 0.428625,-0.41603 0,-0.0991 -0.03422,-0.18479 -0.0949,-0.25079 -0.03457,-0.0387 -0.08008,-0.0677 -0.127,-0.0923 -0.06032,-0.0319 -0.08819,-0.0441 -0.250472,-0.11148 -0.155928,-0.0635 -0.216606,-0.0981 -0.294923,-0.15173 -0.157338,-0.11437 -0.245533,-0.28924 -0.245533,-0.47696 0,-0.35814 0.289631,-0.63249 0.671336,-0.63249 0.163689,0 0.312561,0.0511 0.440973,0.14358 0.04657,0.0342 0.07302,0.0606 0.126647,0.12665 l -0.174978,0.20669 c -0.110419,-0.15311 -0.231422,-0.21636 -0.38735,-0.21636 -0.21202,0 -0.369358,0.15035 -0.369358,0.35955 0,0.073 0.02646,0.1488 0.06491,0.2001 0.0194,0.0317 0.05362,0.0606 0.0949,0.0882 0.05398,0.0384 0.104775,0.0631 0.231775,0.11423 0.14605,0.0579 0.223308,0.0896 0.296333,0.13092 0.21202,0.11423 0.32632,0.30441 0.32632,0.54998 0,0.40209 -0.308681,0.6985 -0.739775,0.6985 -0.213784,0 -0.412045,-0.073 -0.558095,-0.21343 -0.05256,-0.0416 -0.07444,-0.0706 -0.125589,-0.14609 l 0.194381,-0.20958"
         style="fill:#79c6d4;fill-opacity:1;fill-rule:nonzero;stroke:none;stroke-width:0.03527778"
         id="path1763"
         inkscape:connector-curvature="0" />
      <path
         d="m -58.527867,154.87609 h 0.286494 v -2.28603 h -0.286494 z"
         style="fill:#5893ae;fill-opacity:1;fill-rule:nonzero;stroke:none;stroke-width:0.03527778"
         id="path1765"
         inkscape:connector-curvature="0" />
      <path
         d="m -57.609798,152.5873 h 1.163037 v 0.2533 h -0.878064 v 0.71395 h 0.8654 v 0.25217 h -0.8654 v 0.81565 h 0.878064 v 0.25372 h -1.163037 v -2.28879"
         style="fill:#5893ae;fill-opacity:1;fill-rule:nonzero;stroke:none;stroke-width:0.03527778"
         id="path1767"
         inkscape:connector-curvature="0" />
      <path
         d="m -55.899955,152.5873 h 1.163073 v 0.2533 h -0.8763 v 0.71395 h 0.862542 v 0.25217 h -0.862542 v 0.81565 h 0.8763 v 0.25372 h -1.163073 v -2.28879"
         style="fill:#5893ae;fill-opacity:1;fill-rule:nonzero;stroke:none;stroke-width:0.03527778"
         id="path1769"
         inkscape:connector-curvature="0" />
      <path
         d="m -54.189653,152.5873 h 1.163073 v 0.2533 h -0.8763 v 0.71395 h 0.863882 v 0.25217 h -0.863882 v 0.81565 h 0.8763 v 0.25372 h -1.163073 v -2.28879"
         style="fill:#5893ae;fill-opacity:1;fill-rule:nonzero;stroke:none;stroke-width:0.03527778"
         id="path1771"
         inkscape:connector-curvature="0" />
      <path
         d="m -51.378473,153.95816 c 0.11303,0 0.202601,0.0952 0.202601,0.20423 0,0.1101 -0.08957,0.20246 -0.202601,0.20246 -0.108973,0 -0.198543,-0.0924 -0.198543,-0.20246 0,-0.10901 0.08957,-0.20423 0.198543,-0.20423"
         style="fill:#5893ae;fill-opacity:1;fill-rule:nonzero;stroke:none;stroke-width:0.03527778"
         id="path1773"
         inkscape:connector-curvature="0" />
      <path
         d="m -49.347107,152.49484 0.885825,1.95972 0.88332,-1.95972 0.47692,2.38125 h -0.296262 l -0.278377,-1.57236 -0.785601,1.65491 -0.781086,-1.65781 -0.285397,1.57526 h -0.296263 l 0.476921,-2.38125"
         style="fill:#5893ae;fill-opacity:1;fill-rule:nonzero;stroke:none;stroke-width:0.03527778"
         id="path1775"
         inkscape:connector-curvature="0" />
      <path
         d="m -46.974394,152.5873 h 1.360381 v 0.2533 h -0.542925 v 2.03549 h -0.286808 v -2.03549 h -0.530648 v -0.2533"
         style="fill:#5893ae;fill-opacity:1;fill-rule:nonzero;stroke:none;stroke-width:0.03527778"
         id="path1777"
         inkscape:connector-curvature="0" />
      <path
         d="m -45.33426,152.5873 h 1.358547 v 0.2533 h -0.542925 v 2.03549 h -0.285044 v -2.03549 h -0.530578 v -0.2533"
         style="fill:#5893ae;fill-opacity:1;fill-rule:nonzero;stroke:none;stroke-width:0.03527778"
         id="path1779"
         inkscape:connector-curvature="0" />
      <path
         d="m -43.803204,154.27249 h 0.815661 v -0.2413 h -0.815661 z"
         style="fill:#5893ae;fill-opacity:1;fill-rule:nonzero;stroke:none;stroke-width:0.03527778"
         id="path1781"
         inkscape:connector-curvature="0" />
      <path
         d="m -42.487343,154.36485 c 0.129469,0.19967 0.2921,0.29887 0.491772,0.29887 0.248356,0 0.428625,-0.17748 0.428625,-0.41603 0,-0.0991 -0.03422,-0.18479 -0.0949,-0.25079 -0.03457,-0.0387 -0.08008,-0.0677 -0.127,-0.0923 -0.06032,-0.0319 -0.08819,-0.0441 -0.250472,-0.11148 -0.155928,-0.0635 -0.216606,-0.0981 -0.294923,-0.15173 -0.157338,-0.11437 -0.245533,-0.28924 -0.245533,-0.47696 0,-0.35814 0.289631,-0.63249 0.671336,-0.63249 0.163689,0 0.312561,0.0511 0.440973,0.14358 0.04657,0.0342 0.07302,0.0606 0.126647,0.12665 l -0.174978,0.20669 c -0.110419,-0.15311 -0.231422,-0.21636 -0.38735,-0.21636 -0.21202,0 -0.369358,0.15035 -0.369358,0.35955 0,0.073 0.02646,0.1488 0.06491,0.2001 0.0194,0.0317 0.05362,0.0606 0.0949,0.0882 0.05398,0.0384 0.104775,0.0631 0.231775,0.11423 0.14605,0.0579 0.223308,0.0896 0.296333,0.13092 0.21202,0.11423 0.32632,0.30441 0.32632,0.54998 0,0.40209 -0.308681,0.6985 -0.739775,0.6985 -0.213784,0 -0.412045,-0.073 -0.558095,-0.21343 -0.05256,-0.0416 -0.07444,-0.0706 -0.125589,-0.14609 l 0.194381,-0.20958"
         style="fill:#5893ae;fill-opacity:1;fill-rule:nonzero;stroke:none;stroke-width:0.03527778"
         id="path1783"
         inkscape:connector-curvature="0" />
    </g>
  </g>
</svg>
