<?xml version="1.0" encoding="UTF-8" standalone="no"?>
<!-- Created with Inkscape (http://www.inkscape.org/) -->

<svg
   xmlns:dc="http://purl.org/dc/elements/1.1/"
   xmlns:cc="http://creativecommons.org/ns#"
   xmlns:rdf="http://www.w3.org/1999/02/22-rdf-syntax-ns#"
   xmlns:svg="http://www.w3.org/2000/svg"
   xmlns="http://www.w3.org/2000/svg"
   xmlns:sodipodi="http://sodipodi.sourceforge.net/DTD/sodipodi-0.dtd"
   xmlns:inkscape="http://www.inkscape.org/namespaces/inkscape"
   width="263.63211mm"
   height="131.43124mm"
   viewBox="0 0 263.63211 131.43125"
   version="1.1"
   id="svg8"
   inkscape:version="0.92.3 (2405546, 2018-03-11)"
   sodipodi:docname="zp_logo.svg"
   inkscape:export-filename="C:\Users\rooki\Desktop\zp_logo.png"
   inkscape:export-xdpi="118.22546"
   inkscape:export-ydpi="118.22546">
  <defs
     id="defs2" />
  <sodipodi:namedview
     id="base"
     pagecolor="#ffffff"
     bordercolor="#666666"
     borderopacity="1.0"
     inkscape:pageopacity="0.0"
     inkscape:pageshadow="2"
     inkscape:zoom="2"
     inkscape:cx="142.195"
     inkscape:cy="182.58202"
     inkscape:document-units="mm"
     inkscape:current-layer="layer1"
     showgrid="false"
     inkscape:window-width="2736"
     inkscape:window-height="1699"
     inkscape:window-x="-13"
     inkscape:window-y="-13"
     inkscape:window-maximized="1"
     inkscape:object-paths="true"
     inkscape:snap-intersection-paths="true"
     inkscape:snap-smooth-nodes="true"
     fit-margin-top="0"
     fit-margin-left="0"
     fit-margin-right="0"
     fit-margin-bottom="0" />
  <metadata
     id="metadata5">
    <rdf:RDF>
      <cc:Work
         rdf:about="">
        <dc:format>image/svg+xml</dc:format>
        <dc:type
           rdf:resource="http://purl.org/dc/dcmitype/StillImage" />
        <dc:title />
      </cc:Work>
    </rdf:RDF>
  </metadata>
  <g
     inkscape:label="Layer 1"
     inkscape:groupmode="layer"
     id="layer1"
     transform="translate(23.22686,-49.052422)">
    <rect
       style="opacity:1;fill:#ffffff;fill-opacity:0.98387098;stroke:none;stroke-width:0;stroke-linecap:butt;stroke-linejoin:miter;stroke-miterlimit:4;stroke-dasharray:none;stroke-dashoffset:0;stroke-opacity:1"
       id="rect824"
       width="263.63211"
       height="131.43124"
       x="-23.22686"
       y="49.052422"
       ry="5"
       rx="5" />
    <g
       id="g891"
       style="opacity:0.9;fill:#e91e63;fill-opacity:1;stroke-width:0.94439471"
       transform="matrix(1.0588793,0,0,1.0588793,63.967962,-21.470829)">
      <path
         sodipodi:nodetypes="cccccc"
         inkscape:connector-curvature="0"
         id="path821-4-2"
         d="m -3.6988252,115.5002 -5.7749614,-0.002 -25.8260274,25.82603 6e-6,10.69608 31.6009623,-31.60067 z"
         style="fill:#e91e63;fill-opacity:1;stroke:none;stroke-width:0.21858682px;stroke-linecap:butt;stroke-linejoin:miter;stroke-opacity:1" />
      <path
         sodipodi:nodetypes="ccccc"
         inkscape:connector-curvature="0"
         id="path821-1"
         d="m -3.6988058,81.254848 -31.6009732,31.600962 -2e-6,10.69608 31.6009843,-31.600969 z"
         style="fill:#e91e63;fill-opacity:1;stroke:none;stroke-width:0.21858682px;stroke-linecap:butt;stroke-linejoin:miter;stroke-opacity:1" />
      <path
         sodipodi:nodetypes="ccccc"
         inkscape:connector-curvature="0"
         id="path823-8-7-9-5"
         d="m -3.6988058,81.254848 -2.4e-5,39.133832 -7.5632642,7.5632 V 88.787715 Z"
         style="fill:#e91e63;fill-opacity:1;stroke:none;stroke-width:0.21858682px;stroke-linecap:butt;stroke-linejoin:miter;stroke-opacity:1" />
      <path
         sodipodi:nodetypes="cccccc"
         inkscape:connector-curvature="0"
         id="path980"
         d="m -35.307366,105.30013 3.781634,3.78163 3.781635,-3.78161 2e-6,70.73428 -7.563273,-7.56327 z"
         style="fill:#e91e63;fill-opacity:1;stroke:none;stroke-width:0.21858682px;stroke-linecap:butt;stroke-linejoin:miter;stroke-opacity:1" />
    </g>
    <path
       style="opacity:0.6;fill:#e91e63;fill-opacity:1;stroke:none;stroke-width:0.99999994px;stroke-linecap:butt;stroke-linejoin:miter;stroke-opacity:1"
       d="M 92.052734 58.671875 L 92.052734 90.892578 L 92.052734 101.47852 L 92.052734 161.89453 L 122.32031 131.74805 L 175.71484 185.14258 L 92.052734 185.14258 L 92.052734 215.41016 L 188.25195 311.61133 L 188.25195 268.80469 L 134.85742 215.41016 L 188.25195 215.41016 L 188.25195 154.87305 L 92.052734 58.671875 z "
       transform="matrix(0.26458333,0,0,0.26458333,-23.22686,49.052422)"
       id="path912" />
    <g
       id="g838"
       transform="matrix(0.69592412,0,0,0.69592412,46.006724,57.706874)"
       style="stroke-width:1.43693829">
      <g
         aria-label="Peng"
         style="font-style:normal;font-variant:normal;font-weight:normal;font-stretch:normal;font-size:10.58333302px;line-height:1.25;font-family:'Times New Roman';-inkscape-font-specification:'Times New Roman, ';letter-spacing:0px;word-spacing:0px;fill:#424242;fill-opacity:1;stroke:none;stroke-width:0.3801899"
         id="text837">
        <path
           d="m 139.7577,105.33296 q 0,2.89904 -1.02491,5.38812 -0.99563,2.4598 -2.8112,4.27537 -2.25481,2.25481 -5.32956,3.39686 -3.07475,1.11277 -7.76008,1.11277 h -5.7981 v 16.25224 h -5.79809 V 92.155466 h 11.83046 q 3.92396,0 6.64731,0.673516 2.72335,0.644233 4.83174,2.049832 2.48909,1.669148 3.83612,4.15823 1.37631,2.489086 1.37631,6.295916 z m -6.03236,0.14641 q 0,-2.25481 -0.79065,-3.92396 -0.79065,-1.66915 -2.40123,-2.723349 -1.4056,-0.907783 -3.22116,-1.288466 -1.78628,-0.409966 -4.53892,-0.409966 h -5.73953 V 114.5572 h 4.89032 q 3.514,0 5.71024,-0.61495 2.19625,-0.64423 3.57257,-2.02055 1.37631,-1.4056 1.9327,-2.95761 0.58566,-1.55202 0.58566,-3.48472 z"
           style="font-style:normal;font-variant:normal;font-weight:normal;font-stretch:normal;font-size:59.97222137px;font-family:'Noto Sans';-inkscape-font-specification:'Noto Sans';fill:#424242;fill-opacity:1;stroke-width:0.3801899"
           id="path4538" />
        <path
           d="m 172.96498,119.97461 h -24.10017 q 0,3.01618 0.90779,5.271 0.90778,2.22553 2.48908,3.66041 1.52273,1.4056 3.60185,2.1084 2.10839,0.7028 4.62676,0.7028 3.3383,0 6.70588,-1.31775 3.39686,-1.34703 4.83174,-2.6355 h 0.29284 v 6.00308 q -2.78192,1.17133 -5.68097,1.96198 -2.89904,0.79065 -6.09092,0.79065 -8.14076,0 -12.70896,-4.39249 -4.5682,-4.42178 -4.5682,-12.53326 0,-8.02363 4.36322,-12.73824 4.39249,-4.71462 11.53762,-4.71462 6.61803,0 10.19059,3.8654 3.60185,3.8654 3.60185,10.98124 z m -5.35885,-4.2168 q -0.0293,-4.33393 -2.19624,-6.70587 -2.13769,-2.37195 -6.53018,-2.37195 -4.42178,0 -7.05728,2.60621 -2.60622,2.60622 -2.95762,6.47161 z"
           style="font-style:normal;font-variant:normal;font-weight:normal;font-stretch:normal;font-size:59.97222137px;font-family:'Noto Sans';-inkscape-font-specification:'Noto Sans';fill:#424242;fill-opacity:1;stroke-width:0.3801899"
           id="path4540" />
        <path
           d="m 208.66134,135.75832 h -5.50527 v -18.62419 q 0,-2.25481 -0.26355,-4.2168 -0.26355,-1.99126 -0.96635,-3.10403 -0.73208,-1.2299 -2.10839,-1.81556 -1.37632,-0.61495 -3.57257,-0.61495 -2.25481,0 -4.71461,1.11276 -2.4598,1.11277 -4.71461,2.84048 v 24.42229 h -5.50527 v -32.70946 h 5.50527 v 3.63113 q 2.57693,-2.13768 5.32956,-3.3383 2.75263,-1.20062 5.65168,-1.20062 5.30028,0 8.08219,3.19189 2.78192,3.19188 2.78192,9.19496 z"
           style="font-style:normal;font-variant:normal;font-weight:normal;font-stretch:normal;font-size:59.97222137px;font-family:'Noto Sans';-inkscape-font-specification:'Noto Sans';fill:#424242;fill-opacity:1;stroke-width:0.3801899"
           id="path4542" />
        <path
           d="m 245.79257,132.03934 q 0,8.31646 -3.77754,12.21114 -3.77755,3.89468 -11.62548,3.89468 -2.60621,0 -5.09529,-0.38069 -2.4598,-0.3514 -4.86103,-1.02491 v -5.6224 h 0.29283 q 1.34703,0.5271 4.27536,1.28847 2.92834,0.79065 5.85667,0.79065 2.81119,0 4.65604,-0.67352 1.84485,-0.67352 2.86977,-1.87413 1.02491,-1.14205 1.46416,-2.75263 0.43925,-1.61058 0.43925,-3.60185 v -2.9869 q -2.48908,1.99127 -4.77318,2.9869 -2.25481,0.96635 -5.76881,0.96635 -5.85666,0 -9.31209,-4.2168 -3.42615,-4.24608 -3.42615,-11.94759 0,-4.21679 1.17133,-7.26226 1.20062,-3.07475 3.25045,-5.30028 1.90342,-2.07911 4.62676,-3.22116 2.72335,-1.17134 5.41742,-1.17134 2.84048,0 4.74389,0.58567 1.9327,0.55638 4.07038,1.72772 l 0.3514,-1.4056 h 5.15386 z m -5.50526,-5.271 V 108.9348 q -2.19625,-0.99563 -4.09966,-1.4056 -1.87413,-0.43925 -3.74826,-0.43925 -4.53892,0 -7.14513,3.04547 -2.60622,3.04546 -2.60622,8.84356 0,5.50526 1.9327,8.34574 1.9327,2.84048 6.41305,2.84048 2.40123,0 4.80246,-0.90778 2.43051,-0.93707 4.45106,-2.48908 z"
           style="font-style:normal;font-variant:normal;font-weight:normal;font-stretch:normal;font-size:59.97222137px;font-family:'Noto Sans';-inkscape-font-specification:'Noto Sans';fill:#424242;fill-opacity:1;stroke-width:0.3801899"
           id="path4544" />
      </g>
      <g
         aria-label="Z."
         style="font-style:normal;font-variant:normal;font-weight:normal;font-stretch:normal;font-size:10.58333302px;line-height:1.25;font-family:'Times New Roman';-inkscape-font-specification:'Times New Roman, ';letter-spacing:0px;word-spacing:0px;fill:#e91e63;fill-opacity:1;stroke:none;stroke-width:0.3801899"
         id="text833">
        <path
           d="M 83.564756,135.75832 H 49.537548 v -5.38813 L 76.273211,97.309328 h -25.74003 v -5.153862 h 32.387342 v 5.241712 L 55.92131,130.60445 h 27.643446 z"
           style="font-style:normal;font-variant:normal;font-weight:normal;font-stretch:normal;font-size:59.97222137px;font-family:'Noto Sans';-inkscape-font-specification:'Noto Sans';fill:#e91e63;fill-opacity:1;stroke-width:0.3801899"
           id="path4547" />
        <path
           d="m 101.36901,135.75832 h -6.998712 v -8.34575 h 6.998712 z"
           style="font-style:normal;font-variant:normal;font-weight:normal;font-stretch:normal;font-size:59.97222137px;font-family:'Noto Sans';-inkscape-font-specification:'Noto Sans';fill:#e91e63;fill-opacity:1;stroke-width:0.3801899"
           id="path4549" />
      </g>
    </g>
  </g>
</svg>
